<svg width="94" height="94" viewBox="0 0 94 94" fill="none" xmlns="http://www.w3.org/2000/svg">
<path d="M42.4553 58.8512C19.6787 59.2857 16.8295 35.3157 16.8295 35.3157H23.9663C23.9663 35.3157 30.8955 47.1372 48.8593 43.3962L42.4553 58.8512Z" fill="#C66D33"/>
<path d="M32.7715 40.1424C35.8546 40.1424 38.3538 37.6432 38.3538 34.5601C38.3538 32.5369 37.2774 30.765 35.666 29.7859C35.6131 26.3632 32.8225 23.6048 29.3871 23.6048C28.816 23.6048 28.2626 23.6816 27.7368 23.8244C26.9181 20.8807 24.2184 18.7203 21.0138 18.7203C17.8091 18.7203 15.1094 20.8807 14.2907 23.8244C13.7648 23.6816 13.2116 23.6048 12.6404 23.6048C9.2052 23.6048 6.41458 26.3633 6.36152 29.7859C4.75012 30.765 3.67371 32.5369 3.67371 34.5601C3.67371 37.6432 6.17297 40.1424 9.25606 40.1424H32.7715Z" fill="#60D9A7"/>
<path d="M20.6872 32.676C20.6872 32.6735 20.6873 32.6709 20.6873 32.6681C16.9852 32.4976 14.0359 29.4424 14.0359 25.6982C14.0359 25.049 14.125 24.4207 14.2907 23.8244C13.7648 23.6816 13.2116 23.6049 12.6404 23.6049C9.2052 23.6049 6.41458 26.3634 6.36152 29.7859C4.75012 30.765 3.67371 32.5369 3.67371 34.5601C3.67371 37.6432 6.17297 40.1424 9.25606 40.1424H24.104C22.0112 38.3333 20.6872 35.6593 20.6872 32.676Z" fill="#00C680"/>
<path d="M57.6284 59.976C56.8405 46.8151 67.3609 39.2446 60.7088 23.1849H54.5323C50.8158 43.4168 33.3704 40.6052 29.1407 59.976H57.6284Z" fill="#D87C41"/>
<path d="M38.5841 57.5601C48.9448 44.4864 61.0881 53.0637 71.3796 39.1497H76.3174C76.3174 39.1497 73.3334 52.636 61.8595 57.5601H38.5841Z" fill="#E3996D"/>
<path d="M76.3568 13.8118C76.3555 13.8118 76.3543 13.8119 76.3528 13.8119C76.2687 8.75742 72.1478 4.68513 67.073 4.68513C66.5333 4.68513 66.0051 4.73378 65.4907 4.82227C63.2868 1.89395 59.7827 0 55.8356 0C51.0683 0 46.9473 2.76327 44.9836 6.77461C43.6606 6.04923 42.1423 5.63614 40.527 5.63614C35.3998 5.63614 31.2433 9.79271 31.2433 14.9199C31.2433 16.9321 31.8855 18.7932 32.9733 20.3139C31.8987 21.4911 31.2433 23.0574 31.2433 24.7767C31.2433 28.4341 34.2081 31.3988 37.8653 31.3988C39.2535 31.3988 40.5414 30.9708 41.6057 30.2408C43.1873 33.2569 46.3466 35.3157 49.9884 35.3157C53.3507 35.3157 56.3012 33.5604 57.9793 30.9177C59.7146 32.949 62.293 34.2382 65.1741 34.2382C69.7161 34.2382 73.5087 31.0373 74.4238 26.7685C75.0353 26.9549 75.6841 27.0558 76.3566 27.0558C80.014 27.0558 82.9787 24.091 82.9787 20.4338C82.9789 16.7764 80.014 13.8118 76.3568 13.8118Z" fill="#60D9A7"/>
<path d="M55.7128 24.7767C55.7128 24.5665 55.7222 24.3585 55.7356 24.1518C49.1119 24.0976 43.7587 18.7136 43.7587 12.0772C43.7587 10.1746 44.2 8.37557 44.9836 6.77482C43.6606 6.04944 42.1423 5.63635 40.527 5.63635C35.3998 5.63635 31.2433 9.79291 31.2433 14.9201C31.2433 16.9323 31.8855 18.7934 32.9733 20.3141C31.8987 21.4913 31.2433 23.0576 31.2433 24.7769C31.2433 28.4343 34.2081 31.399 37.8653 31.399C39.2535 31.399 40.5414 30.971 41.6057 30.241C43.1873 33.2571 46.3466 35.3159 49.9884 35.3159C53.3507 35.3159 56.3012 33.5606 57.9793 30.9179C56.5673 29.2647 55.7128 27.121 55.7128 24.7767Z" fill="#00C680"/>
<path d="M84.744 40.1424C87.827 40.1424 90.3263 37.6432 90.3263 34.5601C90.3263 32.5369 89.2499 30.765 87.6385 29.7859C87.5856 26.3632 84.795 23.6048 81.3596 23.6048C80.7884 23.6048 80.2351 23.6816 79.7093 23.8244C78.8906 20.8807 76.1909 18.7203 72.9862 18.7203C69.7816 18.7203 67.0819 20.8807 66.2632 23.8244C65.7372 23.6816 65.1841 23.6048 64.6129 23.6048C61.1777 23.6048 58.3871 26.3633 58.334 29.7859C56.7226 30.765 55.6462 32.5369 55.6462 34.5601C55.6462 37.6432 58.1454 40.1424 61.2285 40.1424H84.744Z" fill="#00C680"/>
<path d="M72.6596 32.676C72.6596 32.6735 72.6598 32.6709 72.6598 32.6681C68.9576 32.4976 66.0084 29.4424 66.0084 25.6982C66.0084 25.049 66.0974 24.4207 66.2632 23.8244C65.7372 23.6816 65.1841 23.6049 64.6129 23.6049C61.1777 23.6049 58.3871 26.3634 58.334 29.7859C56.7226 30.765 55.6462 32.5369 55.6462 34.5601C55.6462 37.6432 58.1454 40.1424 61.2285 40.1424H76.0765C73.9839 38.3333 72.6596 35.6593 72.6596 32.676Z" fill="#00A45B"/>
<path d="M82.6482 87.4692L86.4468 59.9556H7.55322L11.3518 87.4692C11.8686 91.2121 15.0677 94 18.8461 94H75.1539C78.9323 94 82.1314 91.2121 82.6482 87.4692Z" fill="#D4D3D9"/>
<path d="M34.048 87.4692L30.2494 59.9556H7.55322L11.3518 87.4692C11.8686 91.2121 15.0677 94 18.8461 94H41.5423C37.7638 94 34.5646 91.2121 34.048 87.4692Z" fill="#A4AFBA"/>
<path d="M90.2172 63.7384H3.78277C1.69365 63.7384 0 62.0448 0 59.9557C0 57.8666 1.69365 56.1729 3.78277 56.1729H90.2174C92.3065 56.1729 94.0002 57.8666 94.0002 59.9557C94 62.0448 92.3063 63.7384 90.2172 63.7384Z" fill="#EAEAEA"/>
<path d="M18.9135 59.9557C18.9135 57.8666 20.6071 56.1729 22.6962 56.1729H3.78277C1.69365 56.1731 0 57.8666 0 59.9557C0 62.0448 1.69365 63.7384 3.78277 63.7384H22.6962C20.6071 63.7384 18.9135 62.045 18.9135 59.9557Z" fill="#D4D3D9"/>
<path d="M86.4347 78.8693H7.56536C5.47625 78.8693 3.78259 77.1756 3.78259 75.0865C3.78259 72.9974 5.47625 71.3038 7.56536 71.3038H86.4347C88.5238 71.3038 90.2174 72.9974 90.2174 75.0865C90.2172 77.1756 88.5238 78.8693 86.4347 78.8693Z" fill="#EAEAEA"/>
<path d="M22.6962 75.0865C22.6962 72.9974 24.3899 71.3038 26.479 71.3038H7.56536C5.47625 71.3038 3.78259 72.9974 3.78259 75.0865C3.78259 77.1756 5.47625 78.8693 7.56536 78.8693H26.4788C24.3897 78.8693 22.6962 77.1756 22.6962 75.0865Z" fill="#D4D3D9"/>
<path d="M45.2999 15.337C44.5393 15.337 43.923 14.7207 43.923 13.9601V11.6907C43.923 10.93 44.5393 10.3137 45.2999 10.3137C46.0606 10.3137 46.6769 10.93 46.6769 11.6907V13.9601C46.6769 14.7207 46.0606 15.337 45.2999 15.337Z" fill="#303746"/>
<path d="M68.9224 15.337C68.1617 15.337 67.5454 14.7207 67.5454 13.9601V11.6907C67.5454 10.93 68.1617 10.3137 68.9224 10.3137C69.683 10.3137 70.2993 10.93 70.2993 11.6907V13.9601C70.2993 14.7207 69.683 15.337 68.9224 15.337Z" fill="#303746"/>
<path d="M57.111 16.6881C55.5198 16.6881 54.0065 15.9989 52.9593 14.7973C52.4595 14.2241 52.5192 13.3542 53.0925 12.8547C53.6655 12.3547 54.5356 12.4146 55.0351 12.9879C55.5593 13.5892 56.3161 13.9342 57.1112 13.9342C57.9064 13.9342 58.663 13.5892 59.1873 12.9879C59.6867 12.4146 60.5566 12.3547 61.1299 12.8547C61.7033 13.3542 61.7628 14.2241 61.2632 14.7973C60.2156 15.9991 58.7023 16.6881 57.111 16.6881Z" fill="#303746"/>
</svg>
