<svg width="41" height="48" viewBox="0 0 41 48" fill="none" xmlns="http://www.w3.org/2000/svg">
<path d="M31.0872 24.0585C28.7186 25.934 21.6666 28.2268 16.1704 38.5416C16.2841 27.4028 13.6338 14.8277 8.45728 5.11987C13.7312 16.3996 15.3845 37.2625 12.9182 47.5393L15.1622 48.0001C15.6493 45.7831 15.9305 43.5259 16.0024 41.2573C20.4849 33.49 22.5446 31.2893 31.0872 24.0585Z" fill="#5FA348"/>
<path d="M23.2383 16.6597C22.4667 16.8599 21.652 16.8144 20.9075 16.5297C21.2229 16.7055 21.5175 16.9165 21.7855 17.1585C23.1298 18.405 22.81 19.8307 21.883 20.828C20.9561 21.8254 19.7745 22.2643 18.5659 21.5217C18.7719 22.9148 17.8993 23.8146 16.7664 24.1994C15.3841 24.6711 13.8557 24.4054 13.2649 22.6655C13.1554 22.3129 13.0846 21.9494 13.0534 21.5815C13.0071 22.3743 12.7132 23.1327 12.2132 23.7495C11.1925 24.9642 9.38033 25.1213 8.16571 24.1005C8.15984 24.0955 8.15387 24.0904 8.148 24.0856C7.53629 23.5424 7.24217 22.7258 7.36745 21.9175C7.19741 22.0218 7.01531 22.1056 6.82538 22.1669C5.35141 22.754 3.68056 22.0352 3.0933 20.5612C3.09058 20.5544 3.08787 20.5476 3.08515 20.5408C2.83373 19.8129 2.94651 19.0086 3.38862 18.3782C2.61654 18.5304 1.81903 18.2909 1.25839 17.7385C0.153289 16.602 0.177518 14.7853 1.3126 13.6788C1.43929 13.5378 1.58532 13.4155 1.74623 13.3157C0.971872 13.0898 0.361575 12.4917 0.12015 11.7219C-0.332493 10.2014 0.533244 8.60168 2.05394 8.14904C2.06524 8.14567 2.07643 8.1423 2.08773 8.13915C2.86111 7.93902 3.67752 7.98454 4.42396 8.26921C4.10615 8.09656 3.80964 7.88741 3.54051 7.64587C2.19627 6.39388 2.58655 4.89785 3.57854 3.85164C4.39169 2.97363 5.56774 2.53989 6.75487 3.30958C6.57059 1.90569 7.52999 0.984212 8.74407 0.572421C9.95825 0.160413 11.4543 0.420634 12.0558 2.16613C12.1616 2.50675 12.2324 2.85737 12.2672 3.21223C12.3119 2.42005 12.6039 1.66176 13.102 1.04419C14.1091 -0.17782 15.9163 -0.35188 17.1383 0.655214C17.1444 0.660212 17.1505 0.665318 17.1563 0.670208C17.768 1.21336 18.0622 2.02999 17.9369 2.83825C18.1071 2.73546 18.289 2.65365 18.4789 2.59432C19.9501 2.00815 21.6179 2.72536 22.2041 4.19639C22.2072 4.20433 22.2105 4.21237 22.2135 4.22052C22.4867 4.95652 22.3791 5.77989 21.9264 6.42115C22.6983 6.27273 23.494 6.51177 24.0566 7.06078C25.1573 8.20163 25.1258 10.0186 23.9861 11.1206C23.8535 11.2574 23.7062 11.379 23.547 11.4837C24.3204 11.7112 24.9299 12.3086 25.1731 13.0774C25.6216 14.6055 24.7466 16.2079 23.2183 16.6564C23.214 16.6577 23.2098 16.6589 23.2054 16.6602" fill="#FE7058"/>
<path d="M38.8219 28.0696C38.2334 28.2218 37.6123 28.1877 37.0439 27.9721C37.2826 28.1067 37.5061 28.2667 37.7105 28.449C38.4972 29.0708 38.6311 30.2125 38.0095 30.9995C37.9424 31.0845 37.8676 31.1633 37.7864 31.235C37.1251 31.9505 36.1875 32.319 35.2714 31.7771C35.4124 32.7081 34.8161 33.5919 33.9 33.8096C32.8485 34.1673 31.6885 33.9722 31.244 32.6442C31.1581 32.3805 31.1036 32.1076 31.0814 31.8311C31.0492 32.4417 30.8274 33.0271 30.4472 33.506C29.6847 34.4292 28.3181 34.5593 27.3949 33.7968C27.3805 33.785 27.3663 33.7729 27.3523 33.7606C26.8945 33.3522 26.6708 32.7421 26.756 32.1346C26.6348 32.2101 26.5058 32.2719 26.3711 32.3188C25.2617 32.7694 23.9971 32.2354 23.5465 31.1259C23.5394 31.1081 23.5323 31.0902 23.5254 31.0722C23.3176 30.5115 23.4007 29.8843 23.7477 29.3973C23.1593 29.5151 22.5506 29.3346 22.1217 28.915C21.2641 28.0793 21.2461 26.7067 22.0818 25.8491C22.0948 25.8358 22.1083 25.8223 22.1217 25.8093C22.2249 25.7068 22.3373 25.6142 22.4577 25.5328C21.8621 25.3654 21.3912 24.9088 21.2057 24.3186C20.8617 23.1716 21.5127 21.963 22.6598 21.619C22.672 21.6153 22.6843 21.6118 22.6963 21.6084C23.2888 21.4557 23.9141 21.4916 24.485 21.7112C24.2418 21.5812 24.0159 21.4208 23.8129 21.2344C22.7885 20.2804 23.0812 19.1421 23.8129 18.329C24.3902 17.5866 25.4377 17.4058 26.2303 17.9116C26.0894 16.8276 26.8158 16.1499 27.7372 15.8301C28.6612 15.4177 29.7446 15.8324 30.1569 16.7564C30.1984 16.8494 30.2321 16.9458 30.2576 17.0444C30.3379 17.304 30.3922 17.571 30.4202 17.8413C30.4542 17.2368 30.6737 16.6577 31.0489 16.1827C31.8132 15.2609 33.1801 15.1333 34.1019 15.8976C34.1162 15.9094 34.1302 15.9214 34.1441 15.9334C34.6026 16.3413 34.8265 16.9519 34.7404 17.5594C34.8626 17.4811 34.9937 17.4174 35.1307 17.3697C36.2405 16.9201 37.5047 17.4552 37.9543 18.5651C37.9619 18.5839 37.9693 18.6028 37.9764 18.6219C38.1789 19.1839 38.0938 19.8094 37.7486 20.2968C38.3369 20.181 38.9447 20.3612 39.3747 20.7791C40.2309 21.6163 40.2462 22.989 39.4092 23.8452C39.3979 23.8568 39.3863 23.8683 39.3747 23.8796C39.2761 23.9848 39.165 24.0776 39.0441 24.1561C39.6386 24.3253 40.1088 24.7811 40.2961 25.3703C40.6393 26.5176 39.9875 27.7257 38.8403 28.0689C38.8269 28.0729 38.8134 28.0767 38.8001 28.0805" fill="#FE7058"/>
<path d="M32.0624 18.8877C31.6493 18.8942 31.2571 19.0707 30.9784 19.3754C30.7428 19.6735 30.6045 20.0368 30.5827 20.4161C30.564 20.2469 30.5296 20.08 30.4798 19.9175C30.3563 19.4281 29.9114 19.0888 29.4067 19.099C29.2368 19.1017 29.0688 19.131 28.9081 19.1858C28.307 19.3177 27.901 19.88 27.965 20.4922C27.7871 20.3726 27.5777 20.3085 27.3632 20.3079C27.008 20.3228 26.6746 20.4836 26.4418 20.7524C25.9374 21.1851 25.8792 21.9447 26.3119 22.4491C26.3518 22.4957 26.3953 22.5391 26.4418 22.5789C26.5716 22.6931 26.7133 22.7931 26.8646 22.877C26.6372 22.7897 26.3978 22.7386 26.1546 22.7252C26.0167 22.7221 25.8792 22.7422 25.748 22.7848C25.0128 22.979 24.5744 23.7323 24.7683 24.4675C24.773 24.4849 24.7779 24.5022 24.7832 24.5193C24.898 24.8913 25.1942 25.1793 25.5692 25.2836C25.4928 25.3337 25.422 25.3919 25.3577 25.457C24.8189 25.9893 24.8135 26.8574 25.3458 27.3962C25.3498 27.4003 25.3537 27.4042 25.3577 27.4082C25.5695 27.6143 25.8536 27.7293 26.1492 27.7279C26.225 27.7332 26.3011 27.7332 26.3769 27.7279C26.1548 28.032 26.1018 28.4278 26.236 28.7794C26.4267 29.3148 26.9417 29.6654 27.5097 29.6465C27.6833 29.6468 27.8557 29.6175 28.0192 29.5597C28.1049 29.5321 28.1868 29.4938 28.2631 29.446C28.2074 29.8285 28.348 30.2136 28.6371 30.4704C28.8689 30.6881 29.1756 30.8083 29.4935 30.8065C29.9075 30.7991 30.3 30.6206 30.5775 30.3133C30.8183 30.0136 30.9585 29.6458 30.9786 29.2619C30.9909 29.4355 31.0256 29.6066 31.0815 29.7714C31.2017 30.2692 31.6537 30.6149 32.1655 30.6007C32.3504 30.5982 32.5334 30.5653 32.7076 30.5032C33.2832 30.3686 33.6585 29.814 33.5693 29.2295C33.744 29.3364 33.9444 29.3945 34.1493 29.3975C34.5389 29.3754 34.9021 29.1931 35.1522 28.8935C35.6243 28.4738 35.6669 27.751 35.2472 27.2789C35.2033 27.2295 35.1552 27.1839 35.1033 27.1427C34.9758 27.028 34.8357 26.9279 34.6858 26.8447C34.9151 26.9207 35.1545 26.9626 35.3959 26.9693C35.5341 26.9698 35.6713 26.9478 35.8025 26.9043C36.5286 26.6996 36.9512 25.9452 36.7465 25.2191C36.7445 25.2117 36.7422 25.2042 36.7401 25.1969C36.6236 24.827 36.3278 24.5414 35.9541 24.4381C36.0301 24.3873 36.0993 24.3274 36.1601 24.2592C36.6975 23.7298 36.7039 22.8649 36.1744 22.3276C36.1696 22.3228 36.1649 22.3181 36.1601 22.3134C35.949 22.1061 35.6646 21.9912 35.3687 21.9936C35.2929 21.9884 35.2168 21.9884 35.141 21.9936C35.3567 21.6871 35.4092 21.2946 35.2819 20.9422C35.0896 20.405 34.5732 20.0526 34.0027 20.0696C33.8311 20.0693 33.6605 20.0986 33.4987 20.1564C33.4124 20.1851 33.3304 20.2252 33.2548 20.2756C33.3083 19.8932 33.1682 19.5091 32.8808 19.2511C32.6472 19.0327 32.3387 18.9124 32.0191 18.9151" fill="#F46A55"/>
<path d="M14.4575 4.08469C13.8788 4.09208 13.3291 4.33937 12.9397 4.76757C12.6121 5.18349 12.4227 5.69144 12.3976 6.22013C12.3687 5.99131 12.3159 5.76608 12.2405 5.54812C12.0733 4.84786 11.4429 4.35686 10.7229 4.36643C10.4868 4.36914 10.2525 4.40934 10.0291 4.48562C9.22142 4.76214 8.57658 5.37993 8.70652 6.31227C8.45684 6.14756 8.16544 6.05748 7.86632 6.05205C7.37554 6.06237 6.90997 6.27174 6.5763 6.63203C5.92037 7.34751 5.66025 8.34482 6.5763 9.18492C6.75709 9.34561 6.95527 9.48556 7.16715 9.60236C6.84358 9.49327 6.50567 9.43286 6.16429 9.42352C5.97111 9.42145 5.77901 9.45079 5.59517 9.51033C4.57721 9.80456 3.99038 10.8685 4.28472 11.8864C4.28613 11.8912 4.28744 11.8959 4.28885 11.9007C4.4465 12.4204 4.85319 12.827 5.37287 12.9847C5.26693 13.0554 5.16882 13.137 5.08027 13.2286C4.33318 13.9776 4.33318 15.1899 5.08027 15.9388C5.45936 16.3015 5.99023 16.4589 6.50578 16.3617C6.1996 16.7898 6.12441 17.3417 6.30521 17.836C6.55576 18.5972 7.2708 19.1083 8.07232 19.0989C8.32472 19.0934 8.57408 19.0438 8.80953 18.9525C8.93013 18.9139 9.04508 18.8592 9.15102 18.79C9.08007 19.3293 9.28346 19.8684 9.69308 20.2263C10.0189 20.5281 10.447 20.6946 10.8911 20.6926C11.4724 20.6847 12.0241 20.4354 12.4142 20.0043C12.7427 19.5826 12.9321 19.0693 12.9562 18.5354C12.9749 18.7786 13.0222 19.0187 13.0971 19.2509C13.281 19.9511 13.9237 20.432 14.6474 20.4108C14.915 20.4077 15.1801 20.3618 15.4334 20.2753C16.2382 20.0819 16.7609 19.3049 16.6368 18.4867C16.8779 18.6413 17.1581 18.7241 17.4445 18.7252C17.9788 18.6834 18.4733 18.4273 18.8159 18.0152C19.4768 17.4071 19.5195 16.3784 18.9115 15.7175C18.8616 15.6631 18.8078 15.6122 18.7508 15.5652C18.5715 15.4051 18.3752 15.2652 18.1654 15.1477C18.4855 15.2551 18.8199 15.3136 19.1574 15.3211C19.3416 15.3204 19.5242 15.2909 19.6995 15.2343C20.7204 14.9391 21.3086 13.8722 21.0133 12.8512C21.0126 12.8488 21.0119 12.8464 21.0112 12.8438C20.8536 12.3241 20.4469 11.9174 19.9272 11.7597C20.0344 11.6909 20.1327 11.6088 20.2198 11.5158C20.9681 10.7697 20.97 9.55825 20.2242 8.80985C20.2227 8.80844 20.2213 8.80703 20.2198 8.80551C19.9297 8.52116 19.5418 8.35829 19.1358 8.35015C19.0284 8.35047 18.9212 8.36134 18.816 8.38274C19.1222 7.95465 19.1974 7.4027 19.0166 6.90844C18.7486 6.15657 18.0258 5.66373 17.228 5.68883C16.9862 5.68872 16.7463 5.72903 16.5179 5.80802C16.3971 5.84855 16.2823 5.90504 16.1764 5.97599C16.2547 5.43589 16.0499 4.89339 15.6344 4.53962C15.3108 4.23452 14.8811 4.06752 14.4364 4.07339" fill="#F46A55"/>
<path d="M28.9461 23.1477C28.0235 24.1416 28.0813 25.6952 29.0752 26.6178C30.069 27.5403 31.6226 27.4825 32.5452 26.4887C33.4678 25.4949 33.41 23.9412 32.4161 23.0187C32.4158 23.0183 32.4155 23.018 32.415 23.0177C31.4248 22.0956 29.8745 22.1506 28.9525 23.1409C28.9504 23.1432 28.9482 23.1454 28.9461 23.1477Z" fill="#985B3F"/>
<path d="M14.1921 41.8102C14.1921 41.8102 14.2247 41.6259 14.2626 41.3062C14.3087 40.8669 14.3215 40.4248 14.3006 39.9836C14.2665 38.5961 13.8944 37.2379 13.2166 36.0267C12.2835 34.4343 10.7671 33.2679 8.98888 32.7744C6.97795 32.1998 4.2949 32.395 1.52515 34.097L2.22432 35.3599C2.68511 36.1892 3.34094 37.3762 4.04011 38.8884C4.96202 40.7765 6.45946 42.3234 8.31676 43.3059C9.18239 43.7527 10.1707 43.9032 11.1299 43.7341C12.3406 43.4624 13.4217 42.7832 14.1921 41.8102Z" fill="#65B54E"/>
<path d="M3.38916 34.1946C5.67128 34.272 7.88256 35.0059 9.758 36.3085C9.40445 35.7159 9.18269 35.0541 9.1075 34.368C9.07915 34.1229 9.0974 33.8745 9.16172 33.6362C9.33437 34.6866 9.68825 35.6991 10.2078 36.6283C11.4525 37.5593 12.5334 38.6915 13.4058 39.978C13.986 40.822 14.4645 41.7319 14.8313 42.6882C14.941 42.9771 14.8323 43.3035 14.5711 43.4688C14.3092 43.6735 13.9312 43.6272 13.7265 43.3656C13.6636 43.2852 13.6223 43.1902 13.6062 43.0895C13.3422 41.7735 12.7988 40.5295 12.0125 39.4415C10.857 38.9507 9.58133 38.8148 8.34846 39.0512C7.73023 39.1504 7.12613 39.3233 6.54897 39.5661C8.90672 38.211 10.5113 38.3141 11.2918 38.5525C10.2236 37.3987 8.96148 36.4411 7.56269 35.7231C6.94664 35.6145 6.31276 35.6706 5.72528 35.8857C5.48657 35.9739 5.26482 36.1022 5.06935 36.2651C5.57328 35.7524 6.24051 35.4321 6.95566 35.3599C6.7063 35.2407 6.45162 35.1321 6.21313 35.0347C5.30143 34.6635 4.35562 34.3822 3.38916 34.1946Z" fill="#5FA348"/>
<path d="M5.08563 36.238L4.93384 36.3735C4.98078 36.3245 5.03152 36.2792 5.08563 36.238Z" fill="#819B43"/>
<path d="M9.72012 9.68929C8.23757 11.2906 8.33373 13.7907 9.93526 15.2733C11.5366 16.7559 14.0367 16.6597 15.5193 15.0582C16.9984 13.4607 16.9065 10.9677 15.314 9.48328C13.7134 7.99541 11.2096 8.08689 9.72186 9.68755C9.72121 9.68798 9.72078 9.68863 9.72012 9.68929Z" fill="#985B3F"/>
<path d="M30.9895 23.7332C31.1242 23.7332 31.2334 23.5633 31.2334 23.3538C31.2334 23.1442 31.1242 22.9744 30.9895 22.9744C30.8548 22.9744 30.7456 23.1442 30.7456 23.3538C30.7456 23.5633 30.8548 23.7332 30.9895 23.7332Z" fill="#DC8744"/>
<path d="M29.8728 25.6033C29.7373 25.6033 29.6289 25.7712 29.6289 25.9773C29.6289 26.1833 29.7372 26.3567 29.8728 26.3567C30.0083 26.3567 30.1168 26.1887 30.1168 25.9773C30.1169 25.7659 30.0083 25.6033 29.8728 25.6033Z" fill="#DC8744"/>
<path d="M29.4068 24.6006C29.2713 24.6006 29.1628 24.7686 29.1628 24.98C29.1628 25.1914 29.2712 25.3594 29.4068 25.3594C29.5424 25.3594 29.6561 25.186 29.6561 24.98C29.6561 24.774 29.5205 24.6006 29.4068 24.6006Z" fill="#DC8744"/>
<path d="M30.0301 23.5815C29.9541 23.4678 29.7536 23.4786 29.5802 23.5815C29.4067 23.6844 29.3362 23.885 29.4122 23.999C29.4881 24.1127 29.6939 24.1019 29.8621 23.999C30.0301 23.8959 30.106 23.6899 30.0301 23.5815Z" fill="#DC8744"/>
<path d="M30.708 24.3022C30.632 24.1885 30.4314 24.1993 30.258 24.3022C30.0846 24.4051 30.0141 24.6111 30.0955 24.7197C30.1769 24.828 30.372 24.8226 30.5454 24.7197C30.7188 24.6166 30.7891 24.4107 30.708 24.3022Z" fill="#DC8744"/>
<path d="M30.274 22.763C30.198 22.6492 29.9975 22.6547 29.824 22.763C29.6506 22.8713 29.5801 23.0664 29.6561 23.1804C29.732 23.2942 29.9378 23.2833 30.106 23.1804C30.274 23.0773 30.3552 22.893 30.274 22.763Z" fill="#DC8744"/>
<path d="M32.2742 23.7659C32.2742 23.6304 32.1278 23.5057 31.9165 23.4894C31.7051 23.4731 31.5317 23.5654 31.5208 23.7008C31.5099 23.8363 31.6671 23.9611 31.8785 23.9774C32.0899 23.9934 32.2633 23.9014 32.2742 23.7659Z" fill="#DC8744"/>
<path d="M28.8648 24.6005C29.0002 24.6005 29.1141 24.4379 29.1195 24.2319C29.125 24.0259 29.0221 23.8525 28.8864 23.8471C28.7509 23.8416 28.637 24.0096 28.6316 24.2156C28.6264 24.4215 28.7075 24.595 28.8648 24.6005Z" fill="#DC8744"/>
<path d="M31.0332 24.5192C31.0332 24.6547 31.1957 24.7685 31.4017 24.774C31.6078 24.7794 31.7812 24.6765 31.7866 24.5409C31.792 24.4054 31.624 24.2915 31.418 24.2861C31.212 24.2807 31.0332 24.3727 31.0332 24.5192Z" fill="#DC8744"/>
<path d="M32.0466 24.7521C32.0466 24.8876 32.2092 25.0069 32.4206 25.0123C32.632 25.0178 32.8 24.9094 32.8055 24.7738C32.8109 24.6383 32.6591 24.519 32.4315 24.519C32.204 24.5192 32.0521 24.6166 32.0466 24.7521Z" fill="#DC8744"/>
<path d="M31.7703 25.2239C31.6402 25.1913 31.4937 25.3323 31.4451 25.5328C31.3963 25.7334 31.4451 25.9231 31.5914 25.9557C31.7378 25.9883 31.8679 25.8528 31.922 25.6522C31.9762 25.4517 31.9057 25.2565 31.7703 25.2239Z" fill="#DC8744"/>
<path d="M32.789 25.6736C32.751 25.5381 32.5558 25.4839 32.3554 25.5381C32.1548 25.5923 32.0247 25.7495 32.0628 25.8796C32.1007 26.0097 32.2958 26.0693 32.4964 26.0151C32.697 25.961 32.827 25.8038 32.789 25.6736Z" fill="#DC8744"/>
<path d="M29.3202 25.9934C29.4231 25.9066 29.3962 25.7063 29.2606 25.549C29.125 25.3916 28.9354 25.3321 28.8324 25.4189C28.7295 25.5057 28.751 25.7061 28.8866 25.8634C29.0222 26.0206 29.2174 26.0802 29.3202 25.9934Z" fill="#DC8744"/>
<path d="M32.0411 26.3514C32.0031 26.2213 31.8134 26.1671 31.6129 26.2213C31.4123 26.2755 31.2823 26.4327 31.3203 26.5628C31.3583 26.6929 31.5481 26.7525 31.7485 26.6929C31.949 26.6331 32.079 26.4813 32.0411 26.3514Z" fill="#DC8744"/>
<path d="M30.2959 25.3866C30.2959 25.5221 30.4584 25.6414 30.6644 25.6468C30.8704 25.6522 31.0439 25.5439 31.0493 25.4083C31.0547 25.2728 30.8867 25.159 30.6807 25.1535C30.4747 25.148 30.2959 25.2511 30.2959 25.3866Z" fill="#DC8744"/>
<path d="M30.144 26.6874C30.144 26.8229 30.3066 26.9367 30.5126 26.9422C30.7186 26.9476 30.8974 26.8447 30.8974 26.7037C30.8974 26.5628 30.7349 26.4543 30.5289 26.4489C30.3229 26.4435 30.1494 26.5736 30.144 26.6874Z" fill="#DC8744"/>
<path d="M13.0429 9.59155C12.8369 9.59155 12.6743 9.84634 12.6743 10.1336C12.6743 10.4208 12.8369 10.7027 13.0429 10.7027C13.2489 10.7027 13.4168 10.4479 13.4168 10.1336C13.4168 9.81929 13.2489 9.59155 13.0429 9.59155Z" fill="#DC8744"/>
<path d="M11.3573 13.5376C11.1567 13.5376 10.9888 13.7924 10.9888 14.0797C10.9888 14.3668 11.1567 14.6488 11.3573 14.6488C11.5579 14.6488 11.7313 14.394 11.7313 14.0797C11.7313 13.7653 11.5633 13.5376 11.3573 13.5376Z" fill="#DC8744"/>
<path d="M10.6146 13.1854C10.8182 13.1854 10.9832 12.9306 10.9832 12.6162C10.9832 12.3019 10.8182 12.0471 10.6146 12.0471C10.4111 12.0471 10.2461 12.3019 10.2461 12.6162C10.2461 12.9306 10.4111 13.1854 10.6146 13.1854Z" fill="#DC8744"/>
<path d="M11.5956 10.5021C11.4764 10.3341 11.1728 10.345 10.9182 10.5021C10.6634 10.6592 10.5442 10.9683 10.6634 11.1363C10.7826 11.3042 11.0863 11.2934 11.3408 11.1091C11.5954 10.9248 11.7149 10.6702 11.5956 10.5021Z" fill="#DC8744"/>
<path d="M12.6038 11.5917C12.49 11.4237 12.1809 11.4346 11.9263 11.5917C11.6716 11.7488 11.5578 12.0579 11.6716 12.2259C11.7853 12.3938 12.0944 12.383 12.3544 12.2259C12.6147 12.0688 12.7393 11.7599 12.6038 11.5917Z" fill="#DC8744"/>
<path d="M11.9697 9.26647C11.8505 9.0985 11.5468 9.10936 11.2868 9.26647C11.0266 9.42358 10.9183 9.7327 11.032 9.90067C11.1458 10.0686 11.4549 10.0578 11.7149 9.90067C11.9751 9.74335 12.0619 9.43445 11.9697 9.26647Z" fill="#DC8744"/>
<path d="M14.9833 10.7786C14.9833 10.578 14.761 10.3883 14.4412 10.3612C14.1214 10.334 13.8612 10.4804 13.8395 10.6809C13.8178 10.8815 14.0618 11.0766 14.3815 11.1038C14.7015 11.131 14.9671 10.9683 14.9833 10.7786Z" fill="#DC8744"/>
<path d="M9.80162 12.0523C10.0076 12.0523 10.181 11.8084 10.1865 11.5102C10.1919 11.2122 10.0401 10.9357 9.83421 10.9303C9.62832 10.9248 9.4548 11.1742 9.44937 11.4723C9.44382 11.7706 9.59561 12.0523 9.80162 12.0523Z" fill="#DC8744"/>
<path d="M13.146 11.9006C13.146 12.1066 13.3899 12.28 13.6881 12.2909C13.9861 12.3018 14.2626 12.1391 14.268 11.9332C14.2735 11.7272 14.0241 11.5592 13.726 11.5484C13.4279 11.5374 13.146 11.7001 13.146 11.9006Z" fill="#DC8744"/>
<path d="M14.6418 12.2748C14.6418 12.4808 14.8858 12.6542 15.1839 12.6596C15.4819 12.665 15.7585 12.5132 15.7639 12.3073C15.7693 12.1015 15.52 11.9279 15.2218 11.9171C14.9237 11.9062 14.6473 12.0525 14.6418 12.2748Z" fill="#DC8744"/>
<path d="M14.2301 12.9847C14.0295 12.9359 13.8072 13.1418 13.7314 13.4509C13.6555 13.7598 13.7314 14.0418 13.9538 14.0905C14.1761 14.1393 14.3766 13.9334 14.4524 13.6243C14.5283 13.3153 14.4252 13.0335 14.2301 12.9847Z" fill="#DC8744"/>
<path d="M15.7583 13.6784C15.7041 13.4833 15.4114 13.3967 15.1078 13.4833C14.8043 13.5701 14.6092 13.803 14.6633 13.9982C14.7175 14.1933 15.0155 14.2853 15.3138 14.1933C15.612 14.1013 15.8181 13.8572 15.7583 13.6784Z" fill="#DC8744"/>
<path d="M10.5225 14.1448C10.6797 14.0148 10.6417 13.7112 10.4357 13.4728C10.2297 13.2343 9.94256 13.1422 9.78524 13.2777C9.62813 13.4132 9.66605 13.7113 9.87205 13.9497C10.0779 14.1882 10.3653 14.2803 10.5225 14.1448Z" fill="#DC8744"/>
<path d="M14.6365 14.6866C14.5769 14.4914 14.2843 14.4046 13.986 14.4914C13.688 14.5782 13.482 14.8112 13.5415 15.0335C13.6012 15.2558 13.8884 15.3207 14.192 15.2286C14.4956 15.1366 14.6907 14.8817 14.6365 14.6866Z" fill="#DC8744"/>
<path d="M11.9915 13.2342C11.9915 13.4347 12.2408 13.6082 12.5335 13.619C12.8262 13.6299 13.1461 13.4672 13.1461 13.2668C13.1461 13.0662 12.8967 12.8874 12.604 12.8765C12.3113 12.8656 11.9969 13.0282 11.9915 13.2342Z" fill="#DC8744"/>
<path d="M11.7693 15.2234C11.7693 15.424 12.0132 15.5974 12.3114 15.6083C12.6094 15.6191 12.8859 15.4565 12.8913 15.256C12.8968 15.0555 12.6474 14.8766 12.3493 14.8657C12.0512 14.8549 11.7747 15.0174 11.7693 15.2234Z" fill="#DC8744"/>
</svg>
