<svg width="61" height="85" viewBox="0 0 61 85" fill="none" xmlns="http://www.w3.org/2000/svg">
<path d="M1.87 37.3428C1.61358 38.8696 6.55916 45.195 13.675 46.39C17.4698 47.0272 21.0627 44.4675 21.6999 40.6728C22.3371 36.8781 19.7774 33.2852 15.9827 32.648C8.86681 31.4531 2.12626 35.8159 1.87 37.3428Z" fill="#60D9A7"/>
<path d="M59.13 37.3428C59.3865 38.8696 54.4409 45.195 47.325 46.39C43.5303 47.0272 39.9374 44.4675 39.3002 40.6728C38.663 36.8781 41.2226 33.2852 45.0173 32.648C52.1332 31.4531 58.8738 35.8159 59.13 37.3428Z" fill="#60D9A7"/>
<path d="M13.675 42.1111C8.90283 41.3097 5.10976 38.2019 3.20426 35.7804C2.41245 36.3918 1.93464 36.9574 1.87 37.3426C1.61358 38.8695 6.55915 45.1949 13.675 46.3898C17.4698 47.027 21.0627 44.4674 21.6999 40.6727C21.8915 39.5317 21.7923 38.4096 21.4591 37.38C20.4176 40.6202 17.1304 42.6913 13.675 42.1111Z" fill="#00C680"/>
<path d="M57.7957 35.7804C55.8903 38.2019 52.0972 41.3096 47.325 42.1111C43.8694 42.6913 40.5823 40.6202 39.541 37.3801C39.2079 38.4098 39.1087 39.5319 39.3002 40.6728C39.9373 44.4676 43.5302 47.0272 47.325 46.39C54.4409 45.1951 59.3864 38.8698 59.13 37.3428C59.0654 36.9574 58.5877 36.3918 57.7957 35.7804Z" fill="#00C680"/>
<path d="M51.826 36.8848C43.9198 36.3905 37.3238 38.1621 31.7336 42.2934V30.0692C31.7336 29.3878 31.1814 28.8356 30.5 28.8356C29.8186 28.8356 29.2664 29.3878 29.2664 30.0692V42.2934C23.6761 38.1623 17.0803 36.3909 9.17403 36.8848C8.49407 36.9274 7.97727 37.5129 8.01971 38.1929C8.06215 38.8729 8.64687 39.3901 9.32782 39.3472C17.3327 38.847 23.8544 40.8418 29.2664 45.4428V54.3476C29.2664 55.0291 29.8186 55.5812 30.5 55.5812C31.1814 55.5812 31.7336 55.0291 31.7336 54.3476V45.4428C37.1456 40.8418 43.6678 38.8465 51.6722 39.3472C52.3512 39.3901 52.9379 38.8729 52.9803 38.1929C53.0229 37.5129 52.5059 36.9274 51.826 36.8848Z" fill="#00A45B"/>
<path d="M50.83 78.3629L54.2331 53.7137H6.76703L10.1701 78.3629C10.6331 81.7161 13.4992 84.2137 16.8842 84.2137H44.116C47.501 84.2137 50.367 81.7161 50.83 78.3629Z" fill="#D87C41"/>
<path d="M27.1145 78.3629L23.7114 53.7137H6.76703L10.1701 78.3629C10.6331 81.7161 13.4992 84.2137 16.8842 84.2137H33.8286C30.4434 84.2137 27.5774 81.7161 27.1145 78.3629Z" fill="#C66D33"/>
<path d="M19.9185 67.1473C19.2371 67.1473 18.6849 66.5951 18.6849 65.9137V63.8804C18.6849 63.1989 19.2371 62.6468 19.9185 62.6468C20.6 62.6468 21.1521 63.1989 21.1521 63.8804V65.9137C21.1521 66.5951 20.6 67.1473 19.9185 67.1473Z" fill="#303746"/>
<path d="M41.0815 67.1473C40.4001 67.1473 39.8479 66.5951 39.8479 65.9137V63.8804C39.8479 63.1989 40.4001 62.6468 41.0815 62.6468C41.7629 62.6468 42.3151 63.1989 42.3151 63.8804V65.9137C42.3151 66.5951 41.7629 67.1473 41.0815 67.1473Z" fill="#303746"/>
<path d="M30.5 68.3578C29.0743 68.3578 27.7185 67.7404 26.7803 66.6637C26.3326 66.15 26.3862 65.3709 26.8999 64.9232C27.4134 64.4756 28.1926 64.5291 28.6404 65.0427C29.1099 65.5816 29.7879 65.8906 30.5002 65.8906C31.2126 65.8906 31.8904 65.5816 32.36 65.0427C32.8079 64.5291 33.5865 64.4756 34.1005 64.9232C34.614 65.3709 34.6676 66.15 34.2201 66.6637C33.2816 67.7404 31.9258 68.3578 30.5 68.3578Z" fill="#303746"/>
<path d="M57.6111 57.1027H3.38894C1.51733 57.1027 0 55.5853 0 53.7137C0 51.8421 1.51733 50.3248 3.38894 50.3248H57.6111C59.4827 50.3248 61 51.8421 61 53.7137C61 55.5853 59.4827 57.1027 57.6111 57.1027Z" fill="#E3996D"/>
<path d="M16.9446 53.7137C16.9446 51.8421 18.4619 50.3248 20.3335 50.3248H3.38894C1.51733 50.3248 0 51.8421 0 53.7137C0 55.5853 1.51733 57.1027 3.38894 57.1027H20.3333C18.4617 57.1027 16.9446 55.5855 16.9446 53.7137Z" fill="#D87C41"/>
<path d="M30.5 0C28.4897 0 26.86 1.62967 26.86 3.63994V7.27988H34.1401V3.63994C34.1399 1.62967 32.5103 0 30.5 0Z" fill="#FF6E7F"/>
<path d="M46.658 3.62334V3.65673C46.658 4.9877 45.579 6.06669 44.248 6.06669C42.917 6.06669 41.8381 7.14567 41.8381 8.47665V10.92C41.8381 18.9613 35.3194 25.4799 27.2781 25.4799V15.7733C27.2781 7.73205 33.7968 1.21338 41.8381 1.21338H44.248C45.579 1.21338 46.658 2.29237 46.658 3.62334Z" fill="#E23452"/>
<path d="M13.5556 3.62334V3.65673C13.5556 4.9877 14.6346 6.06669 15.9656 6.06669C17.2965 6.06669 18.3755 7.14567 18.3755 8.47665V10.92C18.3755 18.9613 24.8942 25.4799 32.9354 25.4799V15.7733C32.9354 7.73205 26.4168 1.21338 18.3755 1.21338H15.9656C14.6346 1.21338 13.5556 2.29237 13.5556 3.62334Z" fill="#F8475D"/>
<path d="M47.4699 9.69891H45.0599C38.2353 9.69891 34.584 13.4956 32.6447 17.2114C31.7426 18.9397 29.2572 18.9397 28.3552 17.2114C26.4158 13.4956 22.7645 9.69891 15.9399 9.69891H13.53C12.199 9.69891 11.12 10.7779 11.12 12.1089V12.1424C11.12 13.4734 12.199 14.5524 13.53 14.5524C14.8609 14.5524 15.9399 15.6314 15.9399 16.9623V19.0236C15.9399 26.9647 22.175 33.5942 30.111 33.8794C38.3299 34.1748 45.0599 27.5762 45.0599 19.4057V16.9623C45.0599 15.6314 46.1389 14.5524 47.4699 14.5524C48.8009 14.5524 49.8798 13.4734 49.8798 12.1424V12.1089C49.8798 10.7779 48.8009 9.69891 47.4699 9.69891Z" fill="#FF6E7F"/>
</svg>
