<svg width="44" height="44" viewBox="0 0 44 44" fill="none" xmlns="http://www.w3.org/2000/svg">
<path d="M30 6.5C30 6.5 30 2 27 0.5C24 2 24 6.5 24 6.5V13.25H30V6.5Z" fill="#35A872"/>
<path d="M29.25 16.25C29.25 16.25 30.1364 8.75 39 8.75C39 8.75 34.5682 12.5 34.5682 16.25H29.25Z" fill="#248256"/>
<path d="M24.75 16.25C24.75 16.25 23.8636 8.75 15 8.75C15 8.75 19.4318 12.5 19.4318 16.25H24.75Z" fill="#248256"/>
<path d="M26.25 12.5C26.25 12.5 27.1364 5 36 5C36 5 31.5682 8.75 31.5682 12.5H26.25Z" fill="#319C6A"/>
<path d="M27.75 12.5C27.75 12.5 26.8636 5 18 5C18 5 22.4318 8.75 22.4318 12.5H27.75Z" fill="#2E9163"/>
<path d="M39 23.75C39 17.1226 33.6274 11.75 27 11.75C20.3726 11.75 15 17.1226 15 23.75V28.25C15 34.8774 20.3726 40.25 27 40.25C33.6274 40.25 39 34.8774 39 28.25V23.75Z" fill="#F7B030"/>
<path d="M35.5115 28.0813L31.2684 32.196L27.0112 28.0635L31.2544 23.9441L35.5115 28.0813Z" fill="#E09F2C"/>
<path d="M27.0113 28.0636L22.7551 32.1961L18.511 28.0805L22.7672 23.9424L27.0113 28.0636Z" fill="#E09F2C"/>
<path d="M26.8002 11.752L22.7559 15.6829L20.6062 13.5941C22.462 12.4218 24.6054 11.7844 26.8002 11.752Z" fill="#E09F2C"/>
<path d="M27.0094 19.8172L22.7672 23.9422L18.51 19.8097L22.7559 15.6829L27.0094 19.8172Z" fill="#E09F2C"/>
<path d="M35.5133 19.8097L31.2543 23.944L27.0093 19.8172L31.2646 15.6809L35.5133 19.8097Z" fill="#E09F2C"/>
<path d="M33.4041 13.6007L31.2647 15.681L27.2231 11.752C29.4141 11.7889 31.5527 12.4285 33.4041 13.6007Z" fill="#E09F2C"/>
<path d="M18.51 19.8097L15.0122 23.2101C15.093 21.3411 15.6123 19.5173 16.5281 17.886L18.51 19.8097Z" fill="#E09F2C"/>
<path d="M38.9869 23.1858L35.5134 19.8099L37.4794 17.9011C38.3866 19.5212 38.9029 21.3309 38.9869 23.1858Z" fill="#E09F2C"/>
<path d="M38.9999 24.6987V28.25C39.0007 29.2219 38.8832 30.1902 38.6502 31.1337L35.5115 28.0812L38.9999 24.6987Z" fill="#E09F2C"/>
<path d="M18.5109 28.0803L15.3534 31.1506C15.1181 30.2017 14.9995 29.2277 15 28.25V24.6763L18.5109 28.0803Z" fill="#E09F2C"/>
<path d="M22.7548 32.1959L18.3026 36.5188C16.8713 35.015 15.855 33.1652 15.3533 31.1506L18.5108 28.0803L22.7548 32.1959Z" fill="#F7B030"/>
<path d="M35.7083 36.5067C34.588 37.6882 33.2389 38.6294 31.7432 39.2729C30.2475 39.9165 28.6364 40.249 27.0082 40.2501C25.3799 40.2512 23.7684 39.921 22.2718 39.2796C20.7752 38.6381 19.4248 37.6988 18.3027 36.5189L22.7549 32.196L27.0112 36.3239L31.2683 32.196L35.7083 36.5067Z" fill="#E09F2C"/>
<path d="M30.4922 39.6987C30.4807 39.7116 30.4712 39.7261 30.4641 39.7419C28.2028 40.42 25.7922 40.4194 23.5312 39.74V39.6987L27.0112 36.3237L30.4922 39.6987Z" fill="#F7B030"/>
<path d="M43.5 29C43.5 36.2487 35.7769 44 26.25 44C16.7231 44 9 36.2487 9 29H43.5Z" fill="#35A872"/>
<path d="M40.4689 29C39.9804 34.9344 33.8014 41 26.2498 41C18.6983 41 12.5192 34.9344 12.0308 29H40.4689Z" fill="#D13330"/>
<path d="M36.75 32C36.75 32.1989 36.671 32.3897 36.5303 32.5303C36.3897 32.671 36.1989 32.75 36 32.75C35.8011 32.75 35.6103 32.671 35.4697 32.5303C35.329 32.3897 35.25 32.1989 35.25 32C35.25 31.5858 35.5858 30.5 36 30.5C36.4142 30.5 36.75 31.5858 36.75 32Z" fill="#5E3725"/>
<path d="M33 35.75C33 35.9489 32.921 36.1397 32.7803 36.2803C32.6397 36.421 32.4489 36.5 32.25 36.5C32.0511 36.5 31.8603 36.421 31.7197 36.2803C31.579 36.1397 31.5 35.9489 31.5 35.75C31.5 35.3358 31.8358 34.25 32.25 34.25C32.6642 34.25 33 35.3358 33 35.75Z" fill="#5E3725"/>
<path d="M29.25 33.5C29.25 33.6989 29.171 33.8897 29.0303 34.0303C28.8897 34.171 28.6989 34.25 28.5 34.25C28.3011 34.25 28.1103 34.171 27.9697 34.0303C27.829 33.8897 27.75 33.6989 27.75 33.5C27.75 33.0858 28.0858 32 28.5 32C28.9142 32 29.25 33.0858 29.25 33.5Z" fill="#5E3725"/>
<path d="M24.75 33.5C24.75 33.6989 24.671 33.8897 24.5303 34.0303C24.3897 34.171 24.1989 34.25 24 34.25C23.8011 34.25 23.6103 34.171 23.4697 34.0303C23.329 33.8897 23.25 33.6989 23.25 33.5C23.25 33.0858 23.5858 32 24 32C24.4142 32 24.75 33.0858 24.75 33.5Z" fill="#5E3725"/>
<path d="M27 38C27 38.1989 26.921 38.3897 26.7803 38.5303C26.6397 38.671 26.4489 38.75 26.25 38.75C26.0511 38.75 25.8603 38.671 25.7197 38.5303C25.579 38.3897 25.5 38.1989 25.5 38C25.5 37.5858 25.8358 36.5 26.25 36.5C26.6642 36.5 27 37.5858 27 38Z" fill="#5E3725"/>
<path d="M19.5 35.75C19.5 35.9489 19.579 36.1397 19.7197 36.2803C19.8603 36.421 20.0511 36.5 20.25 36.5C20.4489 36.5 20.6397 36.421 20.7803 36.2803C20.921 36.1397 21 35.9489 21 35.75C21 35.3358 20.6642 34.25 20.25 34.25C19.8358 34.25 19.5 35.3358 19.5 35.75Z" fill="#5E3725"/>
<path d="M14.9917 24.5C14.3936 24.5 12.8355 24.9082 12.1928 25.3906C11.7067 25.7621 11.1118 25.9633 10.5 25.9633C9.88816 25.9633 9.29331 25.7621 8.80715 25.3906C8.16459 24.9083 6.60637 24.5 6.00824 24.5C2.09671 24.5 -0.546758 28.0228 0.096367 32.3432L0.565117 35.491C0.844721 37.3974 1.46679 39.2375 2.4013 40.9226C3.74409 43.3288 6.31874 44.4923 8.77677 43.8041L10.0312 43.3552C10.3342 43.2463 10.6657 43.2463 10.9687 43.3552L12.2232 43.8041C14.6815 44.4923 17.2559 43.3288 18.599 40.9226C19.5335 39.2375 20.1555 37.3974 20.4351 35.491L20.9039 32.3432C21.5467 28.0228 18.9033 24.5 14.9917 24.5Z" fill="#EB423F"/>
<path d="M10.5 29.75C10.3011 29.75 10.1103 29.671 9.96967 29.5303C9.82902 29.3897 9.75 29.1989 9.75 29C9.75 28.9297 9.75216 27.2541 9.94087 25.2727C10.2016 22.5352 10.6844 20.6213 11.376 19.5839C11.4872 19.4206 11.6585 19.3077 11.8525 19.27C12.0464 19.2322 12.2475 19.2724 12.4119 19.3821C12.5764 19.4917 12.6909 19.6618 12.7306 19.8554C12.7703 20.049 12.732 20.2504 12.624 20.416C11.4981 22.105 11.25 27.1852 11.25 29C11.25 29.1989 11.171 29.3897 11.0303 29.5303C10.8897 29.671 10.6989 29.75 10.5 29.75Z" fill="#5E3725"/>
<path d="M13.2804 27.7196C13.2107 27.65 13.128 27.5947 13.037 27.557C12.946 27.5194 12.8485 27.4999 12.75 27.4999C12.6515 27.4999 12.554 27.5194 12.463 27.557C12.372 27.5947 12.2893 27.65 12.2197 27.7196C12.2144 27.725 11.6384 28.25 10.5 28.25C9.36162 28.25 8.79528 27.7332 8.77175 27.7112L8.78 27.7194C8.71046 27.6491 8.62771 27.5932 8.53651 27.555C8.44531 27.5168 8.34746 27.4971 8.24859 27.4968C8.14972 27.4966 8.05178 27.5159 7.9604 27.5537C7.86902 27.5914 7.78601 27.6469 7.71614 27.7168C7.64628 27.7868 7.59093 27.8699 7.55329 27.9613C7.51566 28.0527 7.49647 28.1507 7.49683 28.2496C7.4972 28.3485 7.5171 28.4463 7.55541 28.5374C7.59373 28.6286 7.64968 28.7113 7.72006 28.7807C7.82065 28.8812 8.74165 29.75 10.5 29.75C12.2599 29.75 13.1813 28.8795 13.2804 28.7803C13.35 28.7107 13.4053 28.628 13.443 28.537C13.4806 28.446 13.5 28.3485 13.5 28.25C13.5 28.1515 13.4806 28.054 13.443 27.963C13.4053 27.872 13.35 27.7893 13.2804 27.7196Z" fill="#C7312E"/>
</svg>
