<svg width="158" height="158" viewBox="0 0 158 158" fill="none" xmlns="http://www.w3.org/2000/svg">
<path d="M56.3662 126.057L53.1328 145.819L56.3662 158H101.634L104.867 145.819L101.634 126.056C95.2431 121.52 87.4336 118.851 79 118.851C70.5664 118.851 62.7569 121.52 56.3662 126.057Z" fill="#80D8E7"/>
<path d="M87.2469 119.729C84.5874 119.159 81.8301 118.852 79 118.852C70.5664 118.852 62.7569 121.52 56.3662 126.057L53.1328 145.819L56.3662 158C56.3662 139.216 69.5968 123.524 87.2469 119.729Z" fill="#03C8DE"/>
<path d="M69.2997 131.85V142.585C69.2997 144.371 70.7473 145.819 72.5331 145.819H85.4666C87.2524 145.819 88.7001 144.371 88.7001 142.585V131.85H69.2997Z" fill="#FF6E7F"/>
<path d="M88.7004 120.077C85.5978 119.28 82.3486 118.852 79 118.852C75.6527 118.852 72.4032 119.277 69.2997 120.073V131.85C71.7052 134.473 75.1602 136.119 79 136.119C82.8399 136.119 86.2946 134.473 88.7004 131.85V120.077Z" fill="#FFCABD"/>
<path d="M79 118.852C75.6527 118.852 72.4032 119.277 69.2997 120.073V128.926C74.2828 124.43 80.4276 121.199 87.2293 119.733C84.5754 119.16 81.8236 118.852 79 118.852Z" fill="#EFB4A8"/>
<path d="M125.925 87.7418C132.369 87.7418 137.592 82.5186 137.592 76.0754C137.592 69.6323 132.369 64.4091 125.925 64.4091C119.482 64.4091 114.259 69.6323 114.259 76.0754C114.259 82.5186 119.482 87.7418 125.925 87.7418Z" fill="#FFCABD"/>
<path d="M32.0734 87.7418C38.5165 87.7418 43.7398 82.5186 43.7398 76.0754C43.7398 69.6323 38.5165 64.4091 32.0734 64.4091C25.6302 64.4091 20.407 69.6323 20.407 76.0754C20.407 82.5186 25.6302 87.7418 32.0734 87.7418Z" fill="#EFB4A8"/>
<path d="M79 122.959C104.894 122.959 125.884 101.968 125.884 76.0745C125.884 50.181 104.894 29.1902 79 29.1902C53.1065 29.1902 32.1157 50.181 32.1157 76.0745C32.1157 101.968 53.1065 122.959 79 122.959Z" fill="#FFDCCE"/>
<path d="M48.2826 76.0748C48.2826 52.938 65.0423 33.7179 87.0833 29.887C84.4572 29.4306 81.7567 29.1905 78.9997 29.1905C53.1062 29.1905 32.1154 50.1813 32.1154 76.0748C32.1154 101.968 53.1065 122.959 79 122.959C81.7567 122.959 84.4572 122.719 87.0836 122.263C65.0426 118.432 48.2826 99.2113 48.2826 76.0748Z" fill="#FFCABD"/>
<path d="M53.2762 99.4749C58.5183 99.4749 62.7679 96.0907 62.7679 91.9162C62.7679 87.7416 58.5183 84.3575 53.2762 84.3575C48.0341 84.3575 43.7845 87.7416 43.7845 91.9162C43.7845 96.0907 48.0341 99.4749 53.2762 99.4749Z" fill="#FFA5BB"/>
<path d="M104.724 99.4749C109.966 99.4749 114.215 96.0907 114.215 91.9162C114.215 87.7416 109.966 84.3575 104.724 84.3575C99.4816 84.3575 95.232 87.7416 95.232 91.9162C95.232 96.0907 99.4816 99.4749 104.724 99.4749Z" fill="#FFA5BB"/>
<path d="M58.8077 86.9546C57.5295 86.9546 56.4933 85.9183 56.4933 84.6401V80.7599C56.4933 79.4817 57.5295 78.4454 58.8077 78.4454C60.0859 78.4454 61.1222 79.4817 61.1222 80.7599V84.6401C61.1222 85.9183 60.0859 86.9546 58.8077 86.9546Z" fill="#303746"/>
<path d="M99.1922 86.9546C97.914 86.9546 96.8777 85.9183 96.8777 84.6401V80.7599C96.8777 79.4817 97.914 78.4454 99.1922 78.4454C100.47 78.4454 101.507 79.4817 101.507 80.7599V84.6401C101.507 85.9183 100.47 86.9546 99.1922 86.9546Z" fill="#303746"/>
<path d="M79 89.2644C76.2905 89.2644 73.7144 88.0912 71.9316 86.0452C71.092 85.0814 71.1923 83.6196 72.156 82.7796C73.1197 81.94 74.5815 82.0403 75.4215 83.004C76.3251 84.0409 77.6292 84.6355 79.0003 84.6355C80.3714 84.6355 81.6755 84.0409 82.579 83.004C83.4184 82.04 84.8805 81.9397 85.8446 82.7796C86.8083 83.6193 86.9086 85.0811 86.0689 86.0452C84.2856 88.0909 81.7094 89.2644 79 89.2644Z" fill="#303746"/>
<path d="M101.634 126.057V158H111.042C115.105 158 118.187 154.292 117.393 150.307C115.406 140.337 109.631 131.733 101.634 126.057Z" fill="#FF6E7F"/>
<path d="M56.3662 126.057V158H46.9584C42.8951 158 39.8132 154.292 40.6072 150.307C42.594 140.337 48.3687 131.733 56.3662 126.057Z" fill="#F8475D"/>
<path d="M98.1436 0H59.8564C50.4557 0 42.4079 6.73969 40.7572 15.9941L32.502 62.2813H125.498L117.243 15.9941C115.592 6.73969 107.544 0 98.1436 0V0Z" fill="#EFBB63"/>
<path d="M79.2567 0H59.8564C50.4557 0 42.4079 6.73969 40.7572 15.9941L32.502 62.2813H51.9024L60.1576 15.9941C61.8082 6.73969 69.8564 0 79.2567 0V0Z" fill="#DDA34E"/>
<path d="M7.86511 60.9038C7.86511 58.3893 12.2363 58.8599 14.6752 58.248C24.7893 55.7101 46.5692 48.2335 79 46.9831C108.598 46.9831 135.871 53.0497 145.985 55.5876C148.424 56.1996 150.135 58.3893 150.135 60.9038C150.135 63.9301 147.682 66.3835 144.655 66.3835H13.3448C10.3184 66.3838 7.86511 63.9301 7.86511 60.9038Z" fill="#F3E177"/>
<path d="M69.2996 56.6834C69.2996 51.3262 73.6425 46.9831 79 46.9831C49.4015 46.9831 22.1289 53.0497 12.0148 55.5876C9.57596 56.1996 7.86511 58.3893 7.86511 60.9038C7.86511 63.9301 10.3184 66.3835 13.3448 66.3835H79C73.6428 66.3835 69.2996 62.0406 69.2996 56.6834Z" fill="#EFBB63"/>
</svg>
