<svg width="48" height="48" viewBox="0 0 48 48" fill="none" xmlns="http://www.w3.org/2000/svg">
<path d="M40.3475 5.32778L37.8623 4.4496L36.1159 3.85938L32.5217 21.2376L33.4697 21.6833L35.4848 22.1081L37.3271 17.378L40.9017 6.45382C41.0535 5.99021 40.8074 5.49026 40.3475 5.32778Z" fill="#E8AD8C"/>
<path d="M35.2379 16.6646L37.8443 3.82054C37.9447 3.32578 37.6148 2.84641 37.1167 2.76363L35.0034 2.41213C34.5054 2.32935 34.038 2.67604 33.9729 3.17666L32.3743 15.4617L31.2307 23.4652L33.5589 23.9713L35.2379 16.6646Z" fill="#ECBBA3"/>
<path d="M46.6679 28.1045V26.5014C46.6679 25.6979 46.2749 24.9453 45.6154 24.4862C45.3229 24.2826 45.0782 24.0177 44.8985 23.71L43.3595 21.0767C42.9493 20.3748 42.2184 19.9214 41.4073 19.8659L40.044 19.7726C39.2072 19.7153 38.4577 19.235 38.0561 18.4987L37.7537 17.9443C37.3235 17.1555 36.4966 16.6646 35.5981 16.6646H34.604C33.9611 16.6646 33.344 16.4126 32.8849 15.9626L31.6169 14.7195C31.1015 14.2142 30.3901 13.9613 29.6715 14.0278L28.7443 14.1137C28.1627 14.1675 27.581 14.0123 27.1036 13.6759L26.7266 13.4104C25.0625 12.2379 22.8411 12.2379 21.1771 13.4104L20.8001 13.6759C20.3227 14.0123 19.741 14.1675 19.1594 14.1137L18.2322 14.0278C17.5136 13.9613 16.8022 14.2142 16.2868 14.7195L15.0188 15.9626C14.5598 16.4126 13.9425 16.6646 13.2997 16.6646H12.3056C11.407 16.6646 10.5802 17.1555 10.15 17.9443L9.84759 18.4987C9.446 19.235 8.69646 19.7153 7.85972 19.7726L6.4964 19.8659C5.68533 19.9215 4.95435 20.3748 4.5442 21.0767L3.00551 23.71C2.82573 24.0177 2.58104 24.2825 2.28857 24.4862C1.62922 24.9453 1.23608 25.6979 1.23608 26.5014V28.1045L2.34376 31.6855H46.0665L46.6679 28.1045Z" fill="#FAF7F7"/>
<path d="M8.00977 35.7124L10.0445 41.9111L12.7049 45.1834C12.9192 45.447 13.2407 45.6 13.5803 45.6H34.3236C34.6632 45.6 34.9847 45.4471 35.1991 45.1834L37.8594 41.9111L40.8565 35.7124H8.00977Z" fill="#E19974"/>
<path d="M46.6465 26.1816H11.8518C10.4279 26.1816 9.54224 24.6352 10.2617 23.4065C10.262 23.4059 10.2622 23.4057 10.2622 23.4057C10.6723 22.7039 11.4033 22.2504 12.2144 22.1949L13.5777 22.1015C14.4143 22.0442 15.164 21.5639 15.5656 20.8276L15.868 20.2732C16.2984 19.4843 17.1252 18.9935 18.0238 18.9935H19.0178C19.6606 18.9935 20.2778 18.7414 20.7368 18.2914L22.0049 17.0483C22.5202 16.5431 23.2318 16.2901 23.9503 16.3566L24.8775 16.4425C25.459 16.4963 26.0407 16.3412 26.5182 16.0048L26.8951 15.7392C28.5592 14.5667 30.7806 14.5667 32.4447 15.7392L32.8216 16.0048C32.9429 16.0902 33.0687 16.1632 33.2018 16.2248C33.0891 16.1466 32.9844 16.0596 32.8852 15.9624L31.6171 14.7192C31.1018 14.214 30.3904 13.961 29.6719 14.0276L28.7446 14.1134C28.163 14.1672 27.5813 14.0121 27.1039 13.6757L26.727 13.4101C25.0629 12.2376 22.8415 12.2376 21.1775 13.4101L20.8006 13.6757C20.3231 14.0121 19.7415 14.1672 19.1599 14.1134L18.2327 14.0276C17.5141 13.961 16.8025 14.214 16.2872 14.7192L15.0194 15.9623C14.5604 16.4123 13.9431 16.6644 13.3003 16.6644H12.3062C11.4076 16.6644 10.5808 17.1552 10.1505 17.9441L9.84817 18.4983C9.44657 19.2346 8.69694 19.715 7.8603 19.7723L6.49698 19.8657C5.686 19.9213 4.95502 20.3746 4.54487 21.0764L3.00359 23.7132C2.81948 24.0281 2.5621 24.2907 2.26511 24.5026C1.61979 24.9631 1.23608 25.7074 1.23608 26.5013V28.1044L2.34376 31.6853H46.0665L46.6679 28.1044V26.5013C46.6679 26.3936 46.6603 26.2869 46.6465 26.1816Z" fill="#F9F3F1"/>
<path d="M7.74227 41.0651L0.108258 30.7605C0.0379768 30.6656 0 30.5506 0 30.4325V28.6554C0 28.3511 0.246705 28.1045 0.551 28.1045H47.4491C47.7534 28.1045 48.0001 28.3512 48.0001 28.6554V30.4325C48.0001 30.5506 47.9621 30.6656 47.8918 30.7605L40.2578 41.065C39.8636 41.597 39.2406 41.9108 38.5785 41.9108H9.42161C8.75947 41.9108 8.13646 41.5971 7.74227 41.0651Z" fill="#ECBBA3"/>
<path d="M42.348 38.2436L40.2577 41.0651C39.8635 41.5971 39.2406 41.9108 38.5785 41.9108H9.42171C8.75957 41.9108 8.13656 41.597 7.74237 41.065L0.108258 30.7605C0.0379768 30.6656 0 30.5506 0 30.4325V28.6554C0 28.3511 0.246705 28.1045 0.550904 28.1045H6.76026L12.0531 35.1544C13.4501 37.0153 15.6377 38.115 17.9646 38.1262L42.348 38.2436Z" fill="#E8AD8C"/>
<path d="M22.2636 25.6916C22.0984 25.6916 21.9323 25.6351 21.7966 25.5195C21.4934 25.2613 21.4569 24.8063 21.7149 24.503C22.2748 23.8454 23.0912 23.4672 23.955 23.4653H23.9614C24.8227 23.4653 25.6381 23.8397 26.1995 24.4933L26.2073 24.5023C26.4657 24.8053 26.4297 25.2604 26.1269 25.519C25.8238 25.7775 25.3689 25.7415 25.1103 25.4387L25.104 25.4313C24.8186 25.0989 24.4017 24.9075 23.9614 24.9075C23.9603 24.9075 23.9592 24.9075 23.9581 24.9075C23.5166 24.9085 23.0992 25.1018 22.8131 25.4379C22.6704 25.6054 22.4676 25.6916 22.2636 25.6916Z" fill="#F9F3F1"/>
<path d="M28.205 21.6833C28.0397 21.6833 27.8736 21.6268 27.7379 21.5112C27.4348 21.253 27.3983 20.7979 27.6564 20.4947C28.2163 19.8371 29.0328 19.4589 29.8966 19.457H29.9029C30.7642 19.457 31.5796 19.8315 32.1409 20.485L32.1453 20.4901C32.406 20.7911 32.3733 21.2466 32.0723 21.5073C31.7714 21.7679 31.3159 21.7353 31.0552 21.4344L31.0489 21.427C30.7599 21.0906 30.3431 20.8993 29.9028 20.8993C29.9018 20.8993 29.9008 20.8993 29.8996 20.8993C29.4581 20.9002 29.0406 21.0936 28.7544 21.4298C28.6117 21.5972 28.409 21.6833 28.205 21.6833Z" fill="#F9F3F1"/>
<path d="M39.3561 24.9072C39.1524 24.9072 38.9499 24.8214 38.8073 24.6543L38.801 24.6469C38.5156 24.3145 38.0987 24.1231 37.6584 24.1231C37.6573 24.1231 37.6563 24.1231 37.6552 24.1231C37.2137 24.124 36.7962 24.3174 36.51 24.6536C36.2518 24.9568 35.7968 24.9934 35.4936 24.7351C35.1904 24.4769 35.1539 24.0218 35.412 23.7186C35.9719 23.061 36.7883 22.6828 37.6521 22.6809H37.6584C38.5198 22.6809 39.3351 23.0553 39.8965 23.7089L39.9043 23.7179C40.1627 24.0209 40.1267 24.476 39.8239 24.7345C39.688 24.8505 39.5217 24.9072 39.3561 24.9072Z" fill="#F9F3F1"/>
<path d="M19.795 21.6832C19.591 21.6832 19.3883 21.597 19.2457 21.4296C18.9593 21.0933 18.542 20.9 18.1004 20.899C18.0993 20.899 18.0983 20.899 18.0972 20.899C17.6569 20.899 17.2401 21.0905 16.9532 21.4245L16.9448 21.4342C16.6839 21.7352 16.2285 21.7677 15.9277 21.5071C15.6267 21.2463 15.594 20.7909 15.8547 20.4899L15.8611 20.4824C16.4204 19.8313 17.2359 19.4568 18.0971 19.4568H18.1035C18.9671 19.4586 19.7838 19.8368 20.3436 20.4945C20.6019 20.7977 20.5653 21.2528 20.2621 21.511C20.1264 21.6267 19.9603 21.6832 19.795 21.6832Z" fill="#F9F3F1"/>
<path d="M12.0395 24.9073C11.8355 24.9073 11.6328 24.8212 11.4902 24.6537C11.2038 24.3175 10.7865 24.1241 10.345 24.1232C10.3439 24.1232 10.3429 24.1232 10.3417 24.1232C9.90147 24.1232 9.48459 24.3146 9.1977 24.6486L9.19289 24.6543C8.93446 24.9571 8.47931 24.9931 8.17627 24.7345C7.87341 24.476 7.83746 24.0209 8.09589 23.7179L8.10214 23.7105C8.66497 23.0553 9.48046 22.6809 10.3417 22.6809H10.3481C11.2117 22.6828 12.0283 23.061 12.5881 23.7186C12.8464 24.0218 12.8098 24.4769 12.5066 24.7351C12.3709 24.8508 12.2048 24.9073 12.0395 24.9073Z" fill="#F9F3F1"/>
</svg>
