<svg width="303" height="16" viewBox="0 0 303 16" fill="none" xmlns="http://www.w3.org/2000/svg">
<path d="M7.88 6.224C8.616 6.384 9.18133 6.704 9.576 7.184C9.98133 7.65333 10.184 8.26133 10.184 9.008C10.184 9.968 9.82667 10.7093 9.112 11.232C8.408 11.744 7.36267 12 5.976 12H0.824V0.799999H5.656C6.904 0.799999 7.86933 1.05067 8.552 1.552C9.24533 2.05333 9.592 2.76267 9.592 3.68C9.592 4.29867 9.43733 4.82667 9.128 5.264C8.82933 5.69067 8.41333 6.01067 7.88 6.224ZM2.008 1.776V5.84H5.576C6.48267 5.84 7.18133 5.66933 7.672 5.328C8.16267 4.976 8.408 4.46933 8.408 3.808C8.408 3.14667 8.16267 2.64533 7.672 2.304C7.18133 1.952 6.48267 1.776 5.576 1.776H2.008ZM5.96 11.024C6.96267 11.024 7.72 10.8533 8.232 10.512C8.744 10.1707 9 9.63733 9 8.912C9 7.51467 7.98667 6.816 5.96 6.816H2.008V11.024H5.96ZM19.9745 8.144H12.9345C12.9985 9.01867 13.3345 9.728 13.9425 10.272C14.5505 10.8053 15.3185 11.072 16.2465 11.072C16.7692 11.072 17.2492 10.9813 17.6865 10.8C18.1238 10.608 18.5025 10.3307 18.8225 9.968L19.4625 10.704C19.0892 11.152 18.6198 11.4933 18.0545 11.728C17.4998 11.9627 16.8865 12.08 16.2145 12.08C15.3505 12.08 14.5825 11.8987 13.9105 11.536C13.2492 11.1627 12.7318 10.6507 12.3585 10C11.9852 9.34933 11.7985 8.61333 11.7985 7.792C11.7985 6.97067 11.9745 6.23467 12.3265 5.584C12.6892 4.93333 13.1798 4.42667 13.7985 4.064C14.4278 3.70133 15.1318 3.52 15.9105 3.52C16.6892 3.52 17.3878 3.70133 18.0065 4.064C18.6252 4.42667 19.1105 4.93333 19.4625 5.584C19.8145 6.224 19.9905 6.96 19.9905 7.792L19.9745 8.144ZM15.9105 4.496C15.0998 4.496 14.4172 4.75733 13.8625 5.28C13.3185 5.792 13.0092 6.464 12.9345 7.296H18.9025C18.8278 6.464 18.5132 5.792 17.9585 5.28C17.4145 4.75733 16.7318 4.496 15.9105 4.496ZM22.3028 0.127999H23.4388V12H22.3028V0.127999ZM29.5436 3.52C30.6423 3.52 31.485 3.79733 32.0716 4.352C32.6583 4.896 32.9516 5.70667 32.9516 6.784V12H31.8636V10.688C31.6076 11.1253 31.229 11.4667 30.7276 11.712C30.237 11.9573 29.6503 12.08 28.9676 12.08C28.029 12.08 27.2823 11.856 26.7276 11.408C26.173 10.96 25.8956 10.368 25.8956 9.632C25.8956 8.91733 26.1516 8.34133 26.6636 7.904C27.1863 7.46667 28.013 7.248 29.1436 7.248H31.8156V6.736C31.8156 6.01067 31.613 5.46133 31.2076 5.088C30.8023 4.704 30.2103 4.512 29.4316 4.512C28.8983 4.512 28.3863 4.60267 27.8956 4.784C27.405 4.95467 26.9836 5.19467 26.6316 5.504L26.1196 4.656C26.5463 4.29333 27.0583 4.016 27.6556 3.824C28.253 3.62133 28.8823 3.52 29.5436 3.52ZM29.1436 11.184C29.7836 11.184 30.333 11.04 30.7916 10.752C31.2503 10.4533 31.5916 10.0267 31.8156 9.472V8.096H29.1756C27.7356 8.096 27.0156 8.59733 27.0156 9.6C27.0156 10.0907 27.2023 10.48 27.5756 10.768C27.949 11.0453 28.4716 11.184 29.1436 11.184ZM34.7891 15.184C34.4371 15.184 34.1065 15.136 33.7971 15.04C33.4771 14.9547 33.2158 14.8213 33.0131 14.64L33.4131 13.776C33.7438 14.064 34.1811 14.208 34.7251 14.208C35.1731 14.208 35.5145 14.0747 35.7491 13.808C35.9945 13.5413 36.1171 13.1467 36.1171 12.624V3.584H37.2531V12.624C37.2531 13.4133 37.0398 14.0373 36.6131 14.496C36.1865 14.9547 35.5785 15.184 34.7891 15.184ZM36.6931 1.728C36.4585 1.728 36.2611 1.648 36.1011 1.488C35.9411 1.328 35.8611 1.136 35.8611 0.912C35.8611 0.698666 35.9411 0.511999 36.1011 0.351999C36.2611 0.191999 36.4585 0.112 36.6931 0.112C36.9278 0.112 37.1251 0.191999 37.2851 0.351999C37.4451 0.501333 37.5251 0.682666 37.5251 0.896C37.5251 1.13067 37.4451 1.328 37.2851 1.488C37.1251 1.648 36.9278 1.728 36.6931 1.728ZM43.3718 3.52C44.4704 3.52 45.3131 3.79733 45.8998 4.352C46.4864 4.896 46.7798 5.70667 46.7798 6.784V12H45.6918V10.688C45.4358 11.1253 45.0571 11.4667 44.5558 11.712C44.0651 11.9573 43.4784 12.08 42.7958 12.08C41.8571 12.08 41.1104 11.856 40.5558 11.408C40.0011 10.96 39.7238 10.368 39.7238 9.632C39.7238 8.91733 39.9798 8.34133 40.4918 7.904C41.0144 7.46667 41.8411 7.248 42.9718 7.248H45.6438V6.736C45.6438 6.01067 45.4411 5.46133 45.0358 5.088C44.6304 4.704 44.0384 4.512 43.2598 4.512C42.7264 4.512 42.2144 4.60267 41.7238 4.784C41.2331 4.95467 40.8118 5.19467 40.4598 5.504L39.9478 4.656C40.3744 4.29333 40.8864 4.016 41.4838 3.824C42.0811 3.62133 42.7104 3.52 43.3718 3.52ZM42.9718 11.184C43.6118 11.184 44.1611 11.04 44.6198 10.752C45.0784 10.4533 45.4198 10.0267 45.6438 9.472V8.096H43.0038C41.5638 8.096 40.8438 8.59733 40.8438 9.6C40.8438 10.0907 41.0304 10.48 41.4038 10.768C41.7771 11.0453 42.2998 11.184 42.9718 11.184ZM50.9533 5.232C51.2199 4.66667 51.6146 4.24 52.1373 3.952C52.6706 3.664 53.3266 3.52 54.1053 3.52V4.624L53.8333 4.608C52.9479 4.608 52.2546 4.88 51.7533 5.424C51.2519 5.968 51.0013 6.73067 51.0013 7.712V12H49.8653V3.584H50.9533V5.232ZM64.8106 3.52C65.6 3.52 66.3146 3.70133 66.9546 4.064C67.5946 4.416 68.096 4.91733 68.4586 5.568C68.8213 6.21867 69.0026 6.96 69.0026 7.792C69.0026 8.624 68.8213 9.36533 68.4586 10.016C68.096 10.6667 67.5946 11.1733 66.9546 11.536C66.3146 11.8987 65.6 12.08 64.8106 12.08C64.1066 12.08 63.472 11.9307 62.9066 11.632C62.352 11.3333 61.904 10.9013 61.5626 10.336V12H60.4746V0.127999H61.6106V5.184C61.9626 4.64 62.4106 4.22933 62.9546 3.952C63.5093 3.664 64.128 3.52 64.8106 3.52ZM64.7306 11.072C65.3173 11.072 65.8506 10.9387 66.3306 10.672C66.8106 10.3947 67.184 10.0053 67.4506 9.504C67.728 9.00267 67.8666 8.432 67.8666 7.792C67.8666 7.152 67.728 6.58133 67.4506 6.08C67.184 5.57867 66.8106 5.19467 66.3306 4.928C65.8506 4.65067 65.3173 4.512 64.7306 4.512C64.1333 4.512 63.5946 4.65067 63.1146 4.928C62.6453 5.19467 62.272 5.57867 61.9946 6.08C61.728 6.58133 61.5946 7.152 61.5946 7.792C61.5946 8.432 61.728 9.00267 61.9946 9.504C62.272 10.0053 62.6453 10.3947 63.1146 10.672C63.5946 10.9387 64.1333 11.072 64.7306 11.072ZM78.6464 8.144H71.6064C71.6704 9.01867 72.0064 9.728 72.6144 10.272C73.2224 10.8053 73.9904 11.072 74.9184 11.072C75.441 11.072 75.921 10.9813 76.3584 10.8C76.7957 10.608 77.1744 10.3307 77.4944 9.968L78.1344 10.704C77.761 11.152 77.2917 11.4933 76.7264 11.728C76.1717 11.9627 75.5584 12.08 74.8864 12.08C74.0224 12.08 73.2544 11.8987 72.5824 11.536C71.921 11.1627 71.4037 10.6507 71.0304 10C70.657 9.34933 70.4704 8.61333 70.4704 7.792C70.4704 6.97067 70.6464 6.23467 70.9984 5.584C71.361 4.93333 71.8517 4.42667 72.4704 4.064C73.0997 3.70133 73.8037 3.52 74.5824 3.52C75.361 3.52 76.0597 3.70133 76.6784 4.064C77.297 4.42667 77.7824 4.93333 78.1344 5.584C78.4864 6.224 78.6624 6.96 78.6624 7.792L78.6464 8.144ZM74.5824 4.496C73.7717 4.496 73.089 4.75733 72.5344 5.28C71.9904 5.792 71.681 6.464 71.6064 7.296H77.5744C77.4997 6.464 77.185 5.792 76.6304 5.28C76.0864 4.75733 75.4037 4.496 74.5824 4.496ZM82.0626 5.232C82.3293 4.66667 82.724 4.24 83.2466 3.952C83.78 3.664 84.436 3.52 85.2146 3.52V4.624L84.9426 4.608C84.0573 4.608 83.364 4.88 82.8626 5.424C82.3613 5.968 82.1106 6.73067 82.1106 7.712V12H80.9746V3.584H82.0626V5.232ZM90.6814 12.08C89.8494 12.08 89.1027 11.8987 88.4414 11.536C87.7907 11.1733 87.2787 10.6667 86.9054 10.016C86.532 9.35467 86.3454 8.61333 86.3454 7.792C86.3454 6.97067 86.532 6.23467 86.9054 5.584C87.2787 4.93333 87.7907 4.42667 88.4414 4.064C89.1027 3.70133 89.8494 3.52 90.6814 3.52C91.4067 3.52 92.052 3.664 92.6174 3.952C93.1934 4.22933 93.6467 4.64 93.9774 5.184L93.1294 5.76C92.852 5.344 92.5 5.03467 92.0734 4.832C91.6467 4.61867 91.1827 4.512 90.6814 4.512C90.0734 4.512 89.524 4.65067 89.0334 4.928C88.5534 5.19467 88.1747 5.57867 87.8974 6.08C87.6307 6.58133 87.4974 7.152 87.4974 7.792C87.4974 8.44267 87.6307 9.01867 87.8974 9.52C88.1747 10.0107 88.5534 10.3947 89.0334 10.672C89.524 10.9387 90.0734 11.072 90.6814 11.072C91.1827 11.072 91.6467 10.9707 92.0734 10.768C92.5 10.5653 92.852 10.256 93.1294 9.84L93.9774 10.416C93.6467 10.96 93.1934 11.376 92.6174 11.664C92.0414 11.9413 91.396 12.08 90.6814 12.08ZM99.5084 12.08C98.6977 12.08 97.967 11.8987 97.3164 11.536C96.6657 11.1627 96.1537 10.6507 95.7804 10C95.407 9.34933 95.2204 8.61333 95.2204 7.792C95.2204 6.97067 95.407 6.23467 95.7804 5.584C96.1537 4.93333 96.6657 4.42667 97.3164 4.064C97.967 3.70133 98.6977 3.52 99.5084 3.52C100.319 3.52 101.05 3.70133 101.7 4.064C102.351 4.42667 102.858 4.93333 103.22 5.584C103.594 6.23467 103.78 6.97067 103.78 7.792C103.78 8.61333 103.594 9.34933 103.22 10C102.858 10.6507 102.351 11.1627 101.7 11.536C101.05 11.8987 100.319 12.08 99.5084 12.08ZM99.5084 11.072C100.106 11.072 100.639 10.9387 101.108 10.672C101.588 10.3947 101.962 10.0053 102.228 9.504C102.495 9.00267 102.628 8.432 102.628 7.792C102.628 7.152 102.495 6.58133 102.228 6.08C101.962 5.57867 101.588 5.19467 101.108 4.928C100.639 4.65067 100.106 4.512 99.5084 4.512C98.911 4.512 98.3724 4.65067 97.8924 4.928C97.423 5.19467 97.0497 5.57867 96.7724 6.08C96.5057 6.58133 96.3724 7.152 96.3724 7.792C96.3724 8.432 96.5057 9.00267 96.7724 9.504C97.0497 10.0053 97.423 10.3947 97.8924 10.672C98.3724 10.9387 98.911 11.072 99.5084 11.072ZM109.588 12.08C108.756 12.08 108.009 11.8987 107.348 11.536C106.697 11.1733 106.185 10.6667 105.812 10.016C105.438 9.35467 105.252 8.61333 105.252 7.792C105.252 6.97067 105.438 6.23467 105.812 5.584C106.185 4.93333 106.697 4.42667 107.348 4.064C108.009 3.70133 108.756 3.52 109.588 3.52C110.313 3.52 110.958 3.664 111.524 3.952C112.1 4.22933 112.553 4.64 112.884 5.184L112.036 5.76C111.758 5.344 111.406 5.03467 110.98 4.832C110.553 4.61867 110.089 4.512 109.588 4.512C108.98 4.512 108.43 4.65067 107.94 4.928C107.46 5.19467 107.081 5.57867 106.804 6.08C106.537 6.58133 106.404 7.152 106.404 7.792C106.404 8.44267 106.537 9.01867 106.804 9.52C107.081 10.0107 107.46 10.3947 107.94 10.672C108.43 10.9387 108.98 11.072 109.588 11.072C110.089 11.072 110.553 10.9707 110.98 10.768C111.406 10.5653 111.758 10.256 112.036 9.84L112.884 10.416C112.553 10.96 112.1 11.376 111.524 11.664C110.948 11.9413 110.302 12.08 109.588 12.08ZM118.415 12.08C117.604 12.08 116.873 11.8987 116.223 11.536C115.572 11.1627 115.06 10.6507 114.687 10C114.313 9.34933 114.127 8.61333 114.127 7.792C114.127 6.97067 114.313 6.23467 114.687 5.584C115.06 4.93333 115.572 4.42667 116.223 4.064C116.873 3.70133 117.604 3.52 118.415 3.52C119.225 3.52 119.956 3.70133 120.607 4.064C121.257 4.42667 121.764 4.93333 122.127 5.584C122.5 6.23467 122.687 6.97067 122.687 7.792C122.687 8.61333 122.5 9.34933 122.127 10C121.764 10.6507 121.257 11.1627 120.607 11.536C119.956 11.8987 119.225 12.08 118.415 12.08ZM118.415 11.072C119.012 11.072 119.545 10.9387 120.015 10.672C120.495 10.3947 120.868 10.0053 121.135 9.504C121.401 9.00267 121.535 8.432 121.535 7.792C121.535 7.152 121.401 6.58133 121.135 6.08C120.868 5.57867 120.495 5.19467 120.015 4.928C119.545 4.65067 119.012 4.512 118.415 4.512C117.817 4.512 117.279 4.65067 116.799 4.928C116.329 5.19467 115.956 5.57867 115.679 6.08C115.412 6.58133 115.279 7.152 115.279 7.792C115.279 8.432 115.412 9.00267 115.679 9.504C115.956 10.0053 116.329 10.3947 116.799 10.672C117.279 10.9387 117.817 11.072 118.415 11.072ZM128.126 7.776L126.142 9.6V12H125.006V0.127999H126.142V8.176L131.166 3.584H132.574L128.974 7.024L132.91 12H131.518L128.126 7.776ZM143.235 11.488C143.021 11.68 142.755 11.8293 142.435 11.936C142.125 12.032 141.8 12.08 141.459 12.08C140.669 12.08 140.061 11.8667 139.635 11.44C139.208 11.0133 138.995 10.4107 138.995 9.632V4.544H137.491V3.584H138.995V1.744H140.131V3.584H142.691V4.544H140.131V9.568C140.131 10.0693 140.253 10.4533 140.499 10.72C140.755 10.976 141.117 11.104 141.587 11.104C141.821 11.104 142.045 11.0667 142.259 10.992C142.483 10.9173 142.675 10.8107 142.835 10.672L143.235 11.488ZM148.247 3.52C149.345 3.52 150.188 3.79733 150.775 4.352C151.361 4.896 151.655 5.70667 151.655 6.784V12H150.567V10.688C150.311 11.1253 149.932 11.4667 149.431 11.712C148.94 11.9573 148.353 12.08 147.671 12.08C146.732 12.08 145.985 11.856 145.431 11.408C144.876 10.96 144.599 10.368 144.599 9.632C144.599 8.91733 144.855 8.34133 145.367 7.904C145.889 7.46667 146.716 7.248 147.847 7.248H150.519V6.736C150.519 6.01067 150.316 5.46133 149.911 5.088C149.505 4.704 148.913 4.512 148.135 4.512C147.601 4.512 147.089 4.60267 146.599 4.784C146.108 4.95467 145.687 5.19467 145.335 5.504L144.823 4.656C145.249 4.29333 145.761 4.016 146.359 3.824C146.956 3.62133 147.585 3.52 148.247 3.52ZM147.847 11.184C148.487 11.184 149.036 11.04 149.495 10.752C149.953 10.4533 150.295 10.0267 150.519 9.472V8.096H147.879C146.439 8.096 145.719 8.59733 145.719 9.6C145.719 10.0907 145.905 10.48 146.279 10.768C146.652 11.0453 147.175 11.184 147.847 11.184ZM159.028 3.52C160.084 3.52 160.922 3.82933 161.54 4.448C162.17 5.056 162.484 5.94667 162.484 7.12V12H161.348V7.232C161.348 6.35733 161.13 5.69067 160.692 5.232C160.255 4.77333 159.631 4.544 158.82 4.544C157.914 4.544 157.194 4.816 156.66 5.36C156.138 5.89333 155.876 6.63467 155.876 7.584V12H154.74V3.584H155.828V5.136C156.138 4.624 156.564 4.22933 157.108 3.952C157.663 3.664 158.303 3.52 159.028 3.52ZM168.512 3.52C169.611 3.52 170.454 3.79733 171.04 4.352C171.627 4.896 171.92 5.70667 171.92 6.784V12H170.832V10.688C170.576 11.1253 170.198 11.4667 169.696 11.712C169.206 11.9573 168.619 12.08 167.936 12.08C166.998 12.08 166.251 11.856 165.696 11.408C165.142 10.96 164.864 10.368 164.864 9.632C164.864 8.91733 165.12 8.34133 165.632 7.904C166.155 7.46667 166.982 7.248 168.112 7.248H170.784V6.736C170.784 6.01067 170.582 5.46133 170.176 5.088C169.771 4.704 169.179 4.512 168.4 4.512C167.867 4.512 167.355 4.60267 166.864 4.784C166.374 4.95467 165.952 5.19467 165.6 5.504L165.088 4.656C165.515 4.29333 166.027 4.016 166.624 3.824C167.222 3.62133 167.851 3.52 168.512 3.52ZM168.112 11.184C168.752 11.184 169.302 11.04 169.76 10.752C170.219 10.4533 170.56 10.0267 170.784 9.472V8.096H168.144C166.704 8.096 165.984 8.59733 165.984 9.6C165.984 10.0907 166.171 10.48 166.544 10.768C166.918 11.0453 167.44 11.184 168.112 11.184ZM185.502 3.52C186.558 3.52 187.385 3.824 187.982 4.432C188.59 5.04 188.894 5.936 188.894 7.12V12H187.758V7.232C187.758 6.35733 187.545 5.69067 187.118 5.232C186.702 4.77333 186.11 4.544 185.342 4.544C184.467 4.544 183.779 4.816 183.278 5.36C182.777 5.89333 182.526 6.63467 182.526 7.584V12H181.39V7.232C181.39 6.35733 181.177 5.69067 180.75 5.232C180.334 4.77333 179.737 4.544 178.958 4.544C178.094 4.544 177.406 4.816 176.894 5.36C176.393 5.89333 176.142 6.63467 176.142 7.584V12H175.006V3.584H176.094V5.12C176.393 4.608 176.809 4.21333 177.342 3.936C177.875 3.65867 178.489 3.52 179.182 3.52C179.886 3.52 180.494 3.66933 181.006 3.968C181.529 4.26667 181.918 4.70933 182.174 5.296C182.483 4.74133 182.926 4.30933 183.502 4C184.089 3.68 184.755 3.52 185.502 3.52ZM194.914 15.184C194.562 15.184 194.231 15.136 193.922 15.04C193.602 14.9547 193.341 14.8213 193.138 14.64L193.538 13.776C193.869 14.064 194.306 14.208 194.85 14.208C195.298 14.208 195.639 14.0747 195.874 13.808C196.119 13.5413 196.242 13.1467 196.242 12.624V3.584H197.378V12.624C197.378 13.4133 197.165 14.0373 196.738 14.496C196.311 14.9547 195.703 15.184 194.914 15.184ZM196.818 1.728C196.583 1.728 196.386 1.648 196.226 1.488C196.066 1.328 195.986 1.136 195.986 0.912C195.986 0.698666 196.066 0.511999 196.226 0.351999C196.386 0.191999 196.583 0.112 196.818 0.112C197.053 0.112 197.25 0.191999 197.41 0.351999C197.57 0.501333 197.65 0.682666 197.65 0.896C197.65 1.13067 197.57 1.328 197.41 1.488C197.25 1.648 197.053 1.728 196.818 1.728ZM203.497 3.52C204.595 3.52 205.438 3.79733 206.025 4.352C206.611 4.896 206.905 5.70667 206.905 6.784V12H205.817V10.688C205.561 11.1253 205.182 11.4667 204.681 11.712C204.19 11.9573 203.603 12.08 202.921 12.08C201.982 12.08 201.235 11.856 200.681 11.408C200.126 10.96 199.849 10.368 199.849 9.632C199.849 8.91733 200.105 8.34133 200.617 7.904C201.139 7.46667 201.966 7.248 203.097 7.248H205.769V6.736C205.769 6.01067 205.566 5.46133 205.161 5.088C204.755 4.704 204.163 4.512 203.385 4.512C202.851 4.512 202.339 4.60267 201.849 4.784C201.358 4.95467 200.937 5.19467 200.585 5.504L200.073 4.656C200.499 4.29333 201.011 4.016 201.609 3.824C202.206 3.62133 202.835 3.52 203.497 3.52ZM203.097 11.184C203.737 11.184 204.286 11.04 204.745 10.752C205.203 10.4533 205.545 10.0267 205.769 9.472V8.096H203.129C201.689 8.096 200.969 8.59733 200.969 9.6C200.969 10.0907 201.155 10.48 201.529 10.768C201.902 11.0453 202.425 11.184 203.097 11.184ZM217.702 0.127999V12H216.614V10.336C216.272 10.9013 215.819 11.3333 215.254 11.632C214.699 11.9307 214.07 12.08 213.366 12.08C212.576 12.08 211.862 11.8987 211.222 11.536C210.582 11.1733 210.08 10.6667 209.718 10.016C209.355 9.36533 209.174 8.624 209.174 7.792C209.174 6.96 209.355 6.21867 209.718 5.568C210.08 4.91733 210.582 4.416 211.222 4.064C211.862 3.70133 212.576 3.52 213.366 3.52C214.048 3.52 214.662 3.664 215.206 3.952C215.76 4.22933 216.214 4.64 216.566 5.184V0.127999H217.702ZM213.462 11.072C214.048 11.072 214.576 10.9387 215.046 10.672C215.526 10.3947 215.899 10.0053 216.166 9.504C216.443 9.00267 216.582 8.432 216.582 7.792C216.582 7.152 216.443 6.58133 216.166 6.08C215.899 5.57867 215.526 5.19467 215.046 4.928C214.576 4.65067 214.048 4.512 213.462 4.512C212.864 4.512 212.326 4.65067 211.846 4.928C211.376 5.19467 211.003 5.57867 210.726 6.08C210.459 6.58133 210.326 7.152 210.326 7.792C210.326 8.432 210.459 9.00267 210.726 9.504C211.003 10.0053 211.376 10.3947 211.846 10.672C212.326 10.9387 212.864 11.072 213.462 11.072ZM220.865 3.584H222.001V12H220.865V3.584ZM221.441 1.744C221.207 1.744 221.009 1.664 220.849 1.504C220.689 1.344 220.609 1.152 220.609 0.927999C220.609 0.714666 220.689 0.528 220.849 0.367999C221.009 0.207999 221.207 0.127999 221.441 0.127999C221.676 0.127999 221.873 0.207999 222.033 0.367999C222.193 0.517332 222.273 0.698666 222.273 0.912C222.273 1.14667 222.193 1.344 222.033 1.504C221.873 1.664 221.676 1.744 221.441 1.744ZM229.35 0.127999H230.486V12H229.35V0.127999ZM240.975 8.144H233.935C233.999 9.01867 234.335 9.728 234.943 10.272C235.551 10.8053 236.319 11.072 237.247 11.072C237.769 11.072 238.249 10.9813 238.687 10.8C239.124 10.608 239.503 10.3307 239.823 9.968L240.463 10.704C240.089 11.152 239.62 11.4933 239.055 11.728C238.5 11.9627 237.887 12.08 237.215 12.08C236.351 12.08 235.583 11.8987 234.911 11.536C234.249 11.1627 233.732 10.6507 233.359 10C232.985 9.34933 232.799 8.61333 232.799 7.792C232.799 6.97067 232.975 6.23467 233.327 5.584C233.689 4.93333 234.18 4.42667 234.799 4.064C235.428 3.70133 236.132 3.52 236.911 3.52C237.689 3.52 238.388 3.70133 239.007 4.064C239.625 4.42667 240.111 4.93333 240.463 5.584C240.815 6.224 240.991 6.96 240.991 7.792L240.975 8.144ZM236.911 4.496C236.1 4.496 235.417 4.75733 234.863 5.28C234.319 5.792 234.009 6.464 233.935 7.296H239.903C239.828 6.464 239.513 5.792 238.959 5.28C238.415 4.75733 237.732 4.496 236.911 4.496ZM247.639 3.52C248.428 3.52 249.143 3.70133 249.783 4.064C250.423 4.416 250.924 4.91733 251.287 5.568C251.649 6.21867 251.831 6.96 251.831 7.792C251.831 8.624 251.649 9.36533 251.287 10.016C250.924 10.6667 250.423 11.1733 249.783 11.536C249.143 11.8987 248.428 12.08 247.639 12.08C246.935 12.08 246.3 11.9307 245.735 11.632C245.18 11.3333 244.732 10.9013 244.391 10.336V12H243.303V0.127999H244.439V5.184C244.791 4.64 245.239 4.22933 245.783 3.952C246.337 3.664 246.956 3.52 247.639 3.52ZM247.559 11.072C248.145 11.072 248.679 10.9387 249.159 10.672C249.639 10.3947 250.012 10.0053 250.279 9.504C250.556 9.00267 250.695 8.432 250.695 7.792C250.695 7.152 250.556 6.58133 250.279 6.08C250.012 5.57867 249.639 5.19467 249.159 4.928C248.679 4.65067 248.145 4.512 247.559 4.512C246.961 4.512 246.423 4.65067 245.943 4.928C245.473 5.19467 245.1 5.57867 244.823 6.08C244.556 6.58133 244.423 7.152 244.423 7.792C244.423 8.432 244.556 9.00267 244.823 9.504C245.1 10.0053 245.473 10.3947 245.943 10.672C246.423 10.9387 246.961 11.072 247.559 11.072ZM254.147 3.584H255.283V12H254.147V3.584ZM254.723 1.744C254.488 1.744 254.291 1.664 254.131 1.504C253.971 1.344 253.891 1.152 253.891 0.927999C253.891 0.714666 253.971 0.528 254.131 0.367999C254.291 0.207999 254.488 0.127999 254.723 0.127999C254.957 0.127999 255.155 0.207999 255.315 0.367999C255.475 0.517332 255.555 0.698666 255.555 0.912C255.555 1.14667 255.475 1.344 255.315 1.504C255.155 1.664 254.957 1.744 254.723 1.744ZM262.731 3.52C263.787 3.52 264.625 3.82933 265.243 4.448C265.873 5.056 266.187 5.94667 266.187 7.12V12H265.051V7.232C265.051 6.35733 264.833 5.69067 264.395 5.232C263.958 4.77333 263.334 4.544 262.523 4.544C261.617 4.544 260.897 4.816 260.363 5.36C259.841 5.89333 259.579 6.63467 259.579 7.584V12H258.443V0.127999H259.579V5.056C259.889 4.56533 260.315 4.18667 260.859 3.92C261.403 3.65333 262.027 3.52 262.731 3.52ZM276.403 3.52C277.502 3.52 278.344 3.79733 278.931 4.352C279.518 4.896 279.811 5.70667 279.811 6.784V12H278.723V10.688C278.467 11.1253 278.088 11.4667 277.587 11.712C277.096 11.9573 276.51 12.08 275.827 12.08C274.888 12.08 274.142 11.856 273.587 11.408C273.032 10.96 272.755 10.368 272.755 9.632C272.755 8.91733 273.011 8.34133 273.523 7.904C274.046 7.46667 274.872 7.248 276.003 7.248H278.675V6.736C278.675 6.01067 278.472 5.46133 278.067 5.088C277.662 4.704 277.07 4.512 276.291 4.512C275.758 4.512 275.246 4.60267 274.755 4.784C274.264 4.95467 273.843 5.19467 273.491 5.504L272.979 4.656C273.406 4.29333 273.918 4.016 274.515 3.824C275.112 3.62133 275.742 3.52 276.403 3.52ZM276.003 11.184C276.643 11.184 277.192 11.04 277.651 10.752C278.11 10.4533 278.451 10.0267 278.675 9.472V8.096H276.035C274.595 8.096 273.875 8.59733 273.875 9.6C273.875 10.0907 274.062 10.48 274.435 10.768C274.808 11.0453 275.331 11.184 276.003 11.184ZM285.153 12.08C284.47 12.08 283.814 11.984 283.185 11.792C282.566 11.5893 282.081 11.3387 281.729 11.04L282.241 10.144C282.593 10.4213 283.035 10.6507 283.569 10.832C284.102 11.0027 284.657 11.088 285.233 11.088C286.001 11.088 286.566 10.9707 286.929 10.736C287.302 10.4907 287.489 10.1493 287.489 9.712C287.489 9.40267 287.387 9.16267 287.185 8.992C286.982 8.81067 286.726 8.67733 286.417 8.592C286.107 8.496 285.697 8.40533 285.185 8.32C284.502 8.192 283.953 8.064 283.537 7.936C283.121 7.79733 282.763 7.568 282.465 7.248C282.177 6.928 282.033 6.48533 282.033 5.92C282.033 5.216 282.326 4.64 282.913 4.192C283.499 3.744 284.315 3.52 285.361 3.52C285.905 3.52 286.449 3.59467 286.993 3.744C287.537 3.88267 287.985 4.06933 288.337 4.304L287.841 5.216C287.147 4.736 286.321 4.496 285.361 4.496C284.635 4.496 284.086 4.624 283.713 4.88C283.35 5.136 283.169 5.472 283.169 5.888C283.169 6.208 283.27 6.464 283.473 6.656C283.686 6.848 283.947 6.992 284.257 7.088C284.566 7.17333 284.993 7.264 285.536 7.36C286.209 7.488 286.747 7.616 287.153 7.744C287.558 7.872 287.905 8.09067 288.193 8.4C288.481 8.70933 288.625 9.136 288.625 9.68C288.625 10.416 288.315 11.0027 287.697 11.44C287.089 11.8667 286.241 12.08 285.153 12.08ZM290.725 3.584H291.861V12H290.725V3.584ZM291.301 1.744C291.066 1.744 290.869 1.664 290.709 1.504C290.549 1.344 290.469 1.152 290.469 0.927999C290.469 0.714666 290.549 0.528 290.709 0.367999C290.869 0.207999 291.066 0.127999 291.301 0.127999C291.535 0.127999 291.733 0.207999 291.893 0.367999C292.053 0.517332 292.133 0.698666 292.133 0.912C292.133 1.14667 292.053 1.344 291.893 1.504C291.733 1.664 291.535 1.744 291.301 1.744ZM298.141 7.776L296.158 9.6V12H295.022V0.127999H296.158V8.176L301.182 3.584H302.59L298.99 7.024L302.926 12H301.534L298.141 7.776Z" fill="black"/>
</svg>
