<svg width="183" height="34" viewBox="0 0 183 34" fill="none" xmlns="http://www.w3.org/2000/svg">
<path d="M8.76 11.28H0.16V5H25.24V11.28H16.68V33H8.76V11.28ZM36.0159 10.96C39.6159 10.96 42.3626 11.7867 44.2559 13.44C46.1493 15.0667 47.0959 17.5733 47.0959 20.96V33H40.0159V30.2C38.9226 32.3067 36.7893 33.36 33.6159 33.36C31.9359 33.36 30.4826 33.0667 29.2559 32.48C28.0293 31.8933 27.0959 31.1067 26.4559 30.12C25.8426 29.1067 25.5359 27.96 25.5359 26.68C25.5359 24.6267 26.3226 23.04 27.8959 21.92C29.4693 20.7733 31.8959 20.2 35.1759 20.2H39.4959C39.3626 17.9067 37.8293 16.76 34.8959 16.76C33.8559 16.76 32.8026 16.9333 31.7359 17.28C30.6693 17.6 29.7626 18.0533 29.0159 18.64L26.4559 13.48C27.6559 12.68 29.1093 12.0667 30.8159 11.64C32.5493 11.1867 34.2826 10.96 36.0159 10.96ZM35.7359 28.56C36.6159 28.56 37.3893 28.3467 38.0559 27.92C38.7226 27.4933 39.2026 26.8667 39.4959 26.04V24.16H36.2159C34.0026 24.16 32.8959 24.8933 32.8959 26.36C32.8959 27.0267 33.1493 27.56 33.6559 27.96C34.1626 28.36 34.8559 28.56 35.7359 28.56ZM66.0131 10.96C68.7065 10.96 70.8665 11.76 72.4931 13.36C74.1465 14.96 74.9731 17.3733 74.9731 20.6V33H67.3731V21.84C67.3731 18.88 66.1865 17.4 63.8131 17.4C62.5065 17.4 61.4531 17.8267 60.6531 18.68C59.8798 19.5333 59.4931 20.8133 59.4931 22.52V33H51.8931V11.32H59.1331V13.68C59.9865 12.8 60.9998 12.1333 62.1731 11.68C63.3465 11.2 64.6265 10.96 66.0131 10.96ZM88.9847 10.96C92.5847 10.96 95.3314 11.7867 97.2247 13.44C99.118 15.0667 100.065 17.5733 100.065 20.96V33H92.9847V30.2C91.8914 32.3067 89.758 33.36 86.5847 33.36C84.9047 33.36 83.4514 33.0667 82.2247 32.48C80.998 31.8933 80.0647 31.1067 79.4247 30.12C78.8114 29.1067 78.5047 27.96 78.5047 26.68C78.5047 24.6267 79.2914 23.04 80.8647 21.92C82.438 20.7733 84.8647 20.2 88.1447 20.2H92.4647C92.3314 17.9067 90.798 16.76 87.8647 16.76C86.8247 16.76 85.7714 16.9333 84.7047 17.28C83.638 17.6 82.7314 18.0533 81.9847 18.64L79.4247 13.48C80.6247 12.68 82.078 12.0667 83.7847 11.64C85.518 11.1867 87.2514 10.96 88.9847 10.96ZM88.7047 28.56C89.5847 28.56 90.358 28.3467 91.0247 27.92C91.6914 27.4933 92.1714 26.8667 92.4647 26.04V24.16H89.1847C86.9714 24.16 85.8647 24.8933 85.8647 26.36C85.8647 27.0267 86.118 27.56 86.6247 27.96C87.1314 28.36 87.8247 28.56 88.7047 28.56ZM133.102 10.96C135.769 10.96 137.889 11.76 139.462 13.36C141.062 14.96 141.862 17.3733 141.862 20.6V33H134.262V21.84C134.262 20.32 133.969 19.2 133.382 18.48C132.822 17.76 132.022 17.4 130.982 17.4C129.835 17.4 128.915 17.8 128.222 18.6C127.529 19.4 127.182 20.6133 127.182 22.24V33H119.582V21.84C119.582 18.88 118.489 17.4 116.302 17.4C115.129 17.4 114.195 17.8 113.502 18.6C112.809 19.4 112.462 20.6133 112.462 22.24V33H104.862V11.32H112.102V13.6C112.902 12.72 113.849 12.0667 114.942 11.64C116.062 11.1867 117.275 10.96 118.582 10.96C120.102 10.96 121.462 11.24 122.662 11.8C123.862 12.36 124.835 13.2133 125.582 14.36C126.435 13.2667 127.515 12.4267 128.822 11.84C130.129 11.2533 131.555 10.96 133.102 10.96ZM146.659 11.32H154.259V33H146.659V11.32ZM150.459 8.92C149.072 8.92 147.952 8.53333 147.099 7.76C146.245 6.98667 145.819 6.02667 145.819 4.88C145.819 3.73333 146.245 2.77333 147.099 2C147.952 1.22667 149.072 0.839999 150.459 0.839999C151.845 0.839999 152.965 1.21333 153.819 1.96C154.672 2.68 155.099 3.61333 155.099 4.76C155.099 5.96 154.672 6.96 153.819 7.76C152.965 8.53333 151.845 8.92 150.459 8.92ZM173.318 10.96C176.011 10.96 178.171 11.76 179.798 13.36C181.451 14.96 182.278 17.3733 182.278 20.6V33H174.678V21.84C174.678 18.88 173.491 17.4 171.118 17.4C169.811 17.4 168.758 17.8267 167.958 18.68C167.184 19.5333 166.798 20.8133 166.798 22.52V33H159.198V11.32H166.438V13.68C167.291 12.8 168.304 12.1333 169.478 11.68C170.651 11.2 171.931 10.96 173.318 10.96Z" fill="#FF6320"/>
</svg>
