<svg width="48" height="48" viewBox="0 0 48 48" fill="none" xmlns="http://www.w3.org/2000/svg">
<path d="M26.7002 48.0001H23.4637C14.0798 48.0001 6.47266 40.393 6.47266 31.009H43.6913C43.6913 40.393 36.0841 48.0001 26.7002 48.0001Z" fill="#EA9D2D"/>
<path d="M42.5958 11.6099C42.4866 11.6099 42.3765 11.5881 42.2698 11.5411C41.8612 11.3599 41.6767 10.8833 41.8563 10.4738L43.8168 6.03349C43.998 5.62652 44.4738 5.44202 44.8841 5.62005C45.2926 5.80127 45.4771 6.27789 45.2975 6.6873L43.337 11.1277C43.2035 11.4303 42.9073 11.6099 42.5958 11.6099Z" fill="#79A73A"/>
<path d="M42.5958 11.61C42.2381 11.61 41.9105 11.3704 41.8142 11.008L40.4873 6.00046C40.3724 5.56921 40.6305 5.12587 41.0625 5.01093C41.4929 4.89684 41.9364 5.15418 42.052 5.58618L43.3798 10.5937C43.4947 11.025 43.2366 11.4683 42.8046 11.5832C42.7342 11.6019 42.6646 11.61 42.5958 11.61Z" fill="#79A73A"/>
<path d="M42.5975 11.61C42.3054 11.61 42.0239 11.4522 41.879 11.1747C41.6727 10.779 41.8264 10.2895 42.2229 10.0832L46.817 7.68915C47.2143 7.48206 47.7013 7.63656 47.9084 8.03303C48.1148 8.42865 47.961 8.91821 47.5646 9.12446L42.9704 11.5185C42.8516 11.5808 42.7237 11.61 42.5975 11.61Z" fill="#79A73A"/>
<path d="M18.9313 8.42139C17.4903 6.1923 14.9886 4.7133 12.1365 4.7133C11.7878 4.7133 11.4456 4.74246 11.1082 4.78615C10.435 2.40978 8.25522 0.667725 5.6637 0.667725C2.53574 0.667725 0 3.20347 0 6.33142C0 8.92295 1.74196 11.1027 4.11833 11.7758C4.07464 12.1132 4.04548 12.4555 4.04548 12.8042C4.04548 15.6562 5.52448 18.158 7.75356 19.599C8.31587 24.6518 12.5976 28.5816 17.8001 28.5816C23.3861 28.5816 27.9139 24.0539 27.9139 18.4679C27.914 13.2654 23.9842 8.9837 18.9313 8.42139Z" fill="#79A73A"/>
<path d="M27.4188 15.3634C26.218 11.6456 22.9307 8.86641 18.9313 8.42054C17.4903 6.1923 14.9886 4.71321 12.1365 4.71321C11.7878 4.71321 11.4456 4.74236 11.1082 4.78605C10.435 2.40978 8.25522 0.667725 5.6637 0.667725C2.53574 0.667725 0 3.20346 0 6.33142C0 8.92294 1.74196 11.1027 4.11833 11.7758C4.07464 12.1132 4.04548 12.4555 4.04548 12.8042C4.04548 15.6562 5.52448 18.158 7.75356 19.599C7.89916 20.9056 8.29806 22.1355 8.89281 23.2439C9.38959 23.3669 9.89443 23.4729 10.4107 23.5562C17.9944 24.7821 25.0473 21.2132 27.4188 15.3634Z" fill="#89B140"/>
<path d="M26.1287 27.9404L27.2729 26.7961L7.85505 7.37823L6.71081 8.52247L26.1287 27.9404Z" fill="#6F9935"/>
<path d="M21.0365 22.5136H14.5637V20.8954H20.2274V16.0408H21.8456V21.7045C21.8455 22.1519 21.4839 22.5136 21.0365 22.5136Z" fill="#6F9935"/>
<path d="M16.182 17.6588H10.5183V16.0406H15.3729V11.9951H16.9912V16.8498C16.9911 17.2971 16.6294 17.6588 16.182 17.6588Z" fill="#6F9935"/>
<path d="M11.3275 12.8043H7.28198V11.1861H10.5184V7.94971H12.1366V11.9952C12.1365 12.4427 11.7749 12.8043 11.3275 12.8043Z" fill="#6F9935"/>
<path d="M29.9368 31.0089L35.1287 13.6958C36.3917 10.834 39.7358 9.53862 42.5975 10.8016C45.4593 12.0646 46.7546 15.4087 45.4916 18.2704L37.8545 31.0088" fill="#F26B32"/>
<path d="M30.7458 29.3907C34.6561 29.3907 38.2429 28.0038 41.0399 25.6947L45.4908 18.2696C46.7538 15.4078 45.4585 12.0646 42.5967 10.8009C39.7348 9.53788 36.3916 10.8332 35.1279 13.695L30.427 29.3746C30.5338 29.377 30.6381 29.3907 30.7458 29.3907Z" fill="#F27332"/>
<path d="M39.9843 16.7202L40.6377 15.24L36.1969 13.2798L35.5435 14.7601L39.9843 16.7202Z" fill="#D85021"/>
<path d="M39.4161 20.0103L38.7632 21.4909L42.5562 23.1658L43.3953 21.7668L39.4161 20.0103Z" fill="#D85021"/>
<path d="M32.084 23.8493L36.0623 25.605L36.7152 24.1244L32.5516 22.2869L32.084 23.8493Z" fill="#D85021"/>
<path d="M37.2807 20.8375L37.9343 19.3572L36.4548 18.7039L35.8012 20.1843L37.2807 20.8375Z" fill="#D85021"/>
<path d="M33.8275 8.93273C34.5929 5.49324 32.4439 2.07485 29.0044 1.28107C25.565 0.487292 22.1352 2.61935 21.3164 6.0459L33.8275 8.93273Z" fill="#F4CA62"/>
<path d="M29.0045 1.28099C27.6703 0.97274 26.3393 1.11027 25.1597 1.58764L27.5231 7.47784L32.3713 3.29314C31.5152 2.32152 30.3631 1.59411 29.0045 1.28099Z" fill="#FBB540"/>
<path d="M43.1865 35.0544H33.1731V36.6727H42.7035C42.8912 36.1443 43.0513 35.6055 43.1865 35.0544Z" fill="#FBB540"/>
<path d="M21.8457 31.009V36.6727C21.8457 37.3006 20.7591 38.5854 19.4184 38.5854C18.0777 38.5854 16.9912 37.3014 16.9912 36.6727V35.0545C16.9912 34.1604 16.267 33.4363 15.3729 33.4363C14.4789 33.4363 13.7547 34.1604 13.7547 35.0545C13.7547 35.9486 13.0306 36.6727 12.1365 36.6727C11.2424 36.6727 10.5183 35.9486 10.5183 35.0545V31.009H13.7547H21.8457Z" fill="#F7BA61"/>
<path d="M35.1287 13.6959L34.894 14.4775L39.9825 16.7236L40.6371 15.2429L35.5147 12.9814C35.3723 13.2089 35.2396 13.4435 35.1287 13.6959Z" fill="#D85021"/>
<path d="M42.0344 38.291H34.7913V39.9092H41.154C41.4761 39.3873 41.7689 38.8485 42.0344 38.291Z" fill="#FBB540"/>
<path d="M14.7449 45.5728C17.296 47.1036 20.2718 48 23.4637 48H26.7001C29.892 48 32.8679 47.1035 35.4189 45.5728H14.7449Z" fill="#C48426"/>
</svg>
